<?xml version="1.0" encoding="UTF-8"?>
<svg width="24px" height="21px" viewBox="0 0 24 21" version="1.1" xmlns="http://www.w3.org/2000/svg" xmlns:xlink="http://www.w3.org/1999/xlink">
    <!-- Generator: Sketch 53.2 (72643) - https://sketchapp.com -->
    <title>allProgramsSelected</title>
    <desc>Created with Sketch.</desc>
    <g id="Page-1" stroke="none" stroke-width="1" fill="none" fill-rule="evenodd">
        <g id="Icons" transform="translate(-81.000000, -815.000000)" fill-rule="nonzero">
            <g id="allProgramsSelected" transform="translate(81.000000, 815.000000)">
                <g id="Group-2" transform="translate(5.000000, 1.000000)" fill="#353D50">
                    <path d="M14.7839456,14.5550597 L14.7839456,7.91498293 C14.7839456,6.57371997 13.6722717,5.4864115 12.3009524,5.4864115 L5.19480261,5.4864115 L2.9542267,3.29494411 C2.79900952,3.14312895 2.58848984,3.05784008 2.36897959,3.05784008 L0.660116015,3.05784008 L0.660116015,1.45606205 C0.660116015,1.00391351 1.03174564,0.6373747 1.49017402,0.6373747 L6.12670078,0.6373747 L8.37375645,2.85364878 C8.52942252,3.00718244 8.74055102,3.09343675 8.96069609,3.09343675 L16.4312182,3.09343675 C16.8896465,3.09343675 17.2612762,3.45997556 17.2612762,3.9121241 L17.2612762,13.7363723 C17.2612762,14.1885208 16.8896465,14.5550597 16.4312182,14.5550597 L14.7839456,14.5550597 Z" id="Combined-Shape"></path>
                </g>
                <path d="M19.8639456,17.1924344 L19.8639456,18.5714286 C19.8639456,19.9126915 18.7522717,21 17.3809524,21 L2.4829932,21 C1.11167392,21 -1.39351871e-14,19.9126915 -1.42108547e-14,18.5714286 L-1.42108547e-14,6.42857143 C-1.39351871e-14,5.08730846 1.11167392,4 2.4829932,4 L4,4 L4,2.45606205 C4,1.09961644 5.11488889,0 6.49017402,0 L11.4705221,0 C11.6906671,0 11.9017956,0.0862543124 12.0574617,0.239787973 L14.3045174,2.45606205 L21.4312182,2.45606205 C22.8065033,2.45606205 23.9213922,3.55567849 23.9213922,4.9121241 L23.9213922,14.7363723 C23.9213922,16.0928179 22.8065033,17.1924344 21.4312182,17.1924344 L19.8639456,17.1924344 Z M19.8639456,15.5550597 L21.4312182,15.5550597 C21.8896465,15.5550597 22.2612762,15.1885208 22.2612762,14.7363723 L22.2612762,4.9121241 C22.2612762,4.45997556 21.8896465,4.09343675 21.4312182,4.09343675 L13.9606961,4.09343675 C13.740551,4.09343675 13.5294225,4.00718244 13.3737564,3.85364878 L11.1267008,1.6373747 L6.49017402,1.6373747 C6.03174564,1.6373747 5.66011602,2.00391351 5.66011602,2.45606205 L5.66011602,4 L7.44897959,4 C7.66848984,4 7.87900952,4.08528887 8.0342267,4.23710403 L10.2748026,6.42857143 L17.3809524,6.42857143 C18.7522717,6.42857143 19.8639456,7.51587989 19.8639456,8.85714286 L19.8639456,15.5550597 Z M7.10614977,5.61904762 L2.4829932,5.61904762 C2.02588677,5.61904762 1.6553288,5.98148377 1.6553288,6.42857143 L1.6553288,18.5714286 C1.6553288,19.0185162 2.02588677,19.3809524 2.4829932,19.3809524 L17.3809524,19.3809524 C17.8380588,19.3809524 18.2086168,19.0185162 18.2086168,18.5714286 L18.2086168,8.85714286 C18.2086168,8.4100552 17.8380588,8.04761905 17.3809524,8.04761905 L9.93197279,8.04761905 C9.71246254,8.04761905 9.50194286,7.96233018 9.34672568,7.81051501 L7.10614977,5.61904762 Z" id="Combined-Shape" fill="#FFFFFF"></path>
                <g id="Group-2" transform="translate(1.000000, 5.000000)" fill="#353D50">
                    <path d="M1.4829932,0.619047619 L6.10614977,0.619047619 L8.34672568,2.81051501 C8.50194286,2.96233018 8.71246254,3.04761905 8.93197279,3.04761905 L16.3809524,3.04761905 C16.8380588,3.04761905 17.2086168,3.4100552 17.2086168,3.85714286 L17.2086168,13.5714286 C17.2086168,14.0185162 16.8380588,14.3809524 16.3809524,14.3809524 L1.4829932,14.3809524 C1.02588677,14.3809524 0.655328798,14.0185162 0.655328798,13.5714286 L0.655328798,1.42857143 C0.655328798,0.981483774 1.02588677,0.619047619 1.4829932,0.619047619 Z" id="Combined-Shape"></path>
                </g>
            </g>
        </g>
    </g>
</svg>