<?xml version="1.0" encoding="UTF-8"?>
<svg width="25px" height="22px" viewBox="0 0 25 22" version="1.1" xmlns="http://www.w3.org/2000/svg" xmlns:xlink="http://www.w3.org/1999/xlink">
    <!-- Generator: Sketch 53.2 (72643) - https://sketchapp.com -->
    <title>expandPanel</title>
    <desc>Created with Sketch.</desc>
    <g id="Page-1" stroke="none" stroke-width="1" fill="none" fill-rule="evenodd">
        <g id="Icons" transform="translate(-81.000000, -781.000000)" fill-rule="nonzero">
            <g id="expandPanel" transform="translate(81.000000, 781.000000)">
                <path d="M7,2 L7,20 L3.33333333,20 C2.58633558,20 2,19.4415852 2,18.7777778 L2,3.22222222 C2,2.55841484 2.58633558,2 3.33333333,2 L7,2 Z" id="Combined-Shape" fill="#353D50"></path>
                <path d="M3.52631579,22 L3.33333333,22 C1.50300225,22 -6.92557123e-13,20.5685693 -6.92779167e-13,18.7777778 L-6.92779167e-13,3.22222222 C-6.93001212e-13,1.43143071 1.50300225,3.33066907e-16 3.33333333,0 L3.52631579,0 L18.6842105,0 C20.6294105,0 22.2105263,1.56464582 22.2105263,3.5 C22.2105263,4.05228475 21.7628111,4.5 21.2105263,4.5 C20.6582416,4.5 20.2105263,4.05228475 20.2105263,3.5 C20.2105263,2.67393043 19.5295019,2 18.6842105,2 L9,2 L9,20 L18.6842105,20 C19.5295019,20 20.2105263,19.3260696 20.2105263,18.5 C20.2105263,17.9477153 20.6582416,17.5 21.2105263,17.5 C21.7628111,17.5 22.2105263,17.9477153 22.2105263,18.5 C22.2105263,20.4353542 20.6294105,22 18.6842105,22 L3.52631579,22 Z M7,2 L3.52631579,2 C2.68102444,2 2,2.67393043 2,3.5 L2,18.5 C2,19.3260696 2.68102444,20 3.52631579,20 L7,20 L7,2 Z M21.5857864,12 L12,12 C11.4477153,12 11,11.5522847 11,11 C11,10.4477153 11.4477153,10 12,10 L21.5857864,10 L18.2928932,6.70710678 C17.9023689,6.31658249 17.9023689,5.68341751 18.2928932,5.29289322 C18.6834175,4.90236893 19.3165825,4.90236893 19.7071068,5.29289322 L24.7071068,10.2928932 C25.0976311,10.6834175 25.0976311,11.3165825 24.7071068,11.7071068 L19.7071068,16.7071068 C19.3165825,17.0976311 18.6834175,17.0976311 18.2928932,16.7071068 C17.9023689,16.3165825 17.9023689,15.6834175 18.2928932,15.2928932 L21.5857864,12 Z" id="Combined-Shape" fill="#868BA7"></path>
            </g>
        </g>
    </g>
</svg>