<?xml version="1.0" encoding="UTF-8"?>
<svg width="268px" height="200px" viewBox="0 0 268 200" version="1.1" xmlns="http://www.w3.org/2000/svg" xmlns:xlink="http://www.w3.org/1999/xlink">
    <!-- Generator: Sketch 53 (72520) - https://sketchapp.com -->
    <title>45-fail-design</title>
    <desc>Created with Sketch.</desc>
    <g id="Page-1" stroke="none" stroke-width="1" fill="none" fill-rule="evenodd">
        <g id="StyleGuide-Errors-500FullScreen" transform="translate(-586.000000, -205.000000)">
            <g id="Group-2" transform="translate(549.000000, 205.000000)">
                <g id="45-fail-design" transform="translate(38.000000, 0.000000)">
                    <g id="New_Symbol_58-2">
                        <g id="Group-3" transform="translate(12.556505, 0.044691)">
                            <path d="M243.875381,121.907113 C243.898192,72.1294678 213.618088,27.3431524 167.394674,8.78699062 C121.171259,-9.76917112 68.3001617,1.63650461 33.8542164,37.5951528 C-0.591728844,73.553801 -9.68536874,126.834061 10.8857349,172.169061 L233.023057,172.169061 C240.190659,156.381652 243.891103,139.243247 243.875381,121.907113 Z" id="Path" fill="#E6E8EB" fill-rule="nonzero"></path>
                            <path d="M1.55761346,172.169061 L239.333257,172.169061" id="Path" stroke="#7C7D7F" stroke-width="1.6" stroke-linecap="round" stroke-linejoin="round"></path>
                        </g>
                        <path d="M0.396292739,172.213753 L8.01730695,172.213753" id="Path" stroke="#7C7D7F" stroke-width="1.6" stroke-linecap="round" stroke-linejoin="round"></path>
                        <path d="M257.986573,172.213753 L265.607587,172.213753" id="Path" stroke="#7C7D7F" stroke-width="1.6" stroke-linecap="round" stroke-linejoin="round"></path>
                    </g>
                    <rect id="Rectangle" fill="#DBE9F9" fill-rule="nonzero" x="70.5263158" y="139" width="60" height="60" rx="5"></rect>
                    <rect id="Rectangle" stroke="#7C7D7F" stroke-width="1.6" stroke-linecap="round" stroke-linejoin="round" x="70.5263158" y="139" width="60" height="60" rx="5"></rect>
                    <rect id="Rectangle" fill="#FFFFFF" fill-rule="nonzero" x="84.2105263" y="152.684211" width="32.6315789" height="32.6315789" rx="2"></rect>
                    <rect id="Rectangle" stroke="#7C7D7F" stroke-width="1.6" stroke-linecap="round" stroke-linejoin="round" x="84.2105263" y="152.684211" width="32.6315789" height="32.6315789" rx="2"></rect>
                    <polygon id="Rectangle" stroke="#7C7D7F" stroke-width="1.6" fill="#FFFFFF" fill-rule="nonzero" stroke-linecap="round" stroke-linejoin="round" transform="translate(155.896598, 135.009344) rotate(33.820000) translate(-155.896598, -135.009344) " points="152.851425 125.868953 158.947056 125.867191 158.941771 144.149736 152.84614 144.151498"></polygon>
                    <path d="M168.564593,129.526316 L173.014354,129.526316 C174.587887,129.526316 176.096973,128.860904 177.209629,127.676464 C178.322285,126.492024 178.947368,124.885578 178.947368,123.210526 L178.947368,120.052632 C178.947368,116.564517 176.291067,113.736842 173.014354,113.736842 L170.255502,113.736842 C169.14428,113.760183 168.058935,114.098073 167.111005,114.715789 C162.158121,117.899562 156.543588,119.732724 150.76555,120.052632 C148.308015,120.052632 146.315789,122.173388 146.315789,124.789474 C146.315789,127.405559 148.308015,129.526316 150.76555,129.526316 L168.564593,129.526316 Z" id="Path" fill="#FFFFFF" fill-rule="nonzero"></path>
                    <path d="M168.564593,129.526316 L173.014354,129.526316 C174.587887,129.526316 176.096973,128.860904 177.209629,127.676464 C178.322285,126.492024 178.947368,124.885578 178.947368,123.210526 L178.947368,120.052632 C178.947368,116.564517 176.291067,113.736842 173.014354,113.736842 L170.255502,113.736842 C169.14428,113.760183 168.058935,114.098073 167.111005,114.715789 C162.158121,117.899562 156.543588,119.732724 150.76555,120.052632 C148.308015,120.052632 146.315789,122.173388 146.315789,124.789474 C146.315789,127.405559 148.308015,129.526316 150.76555,129.526316 L168.564593,129.526316 Z" id="Path" stroke="#7C7D7F" stroke-width="1.6" stroke-linecap="round" stroke-linejoin="round"></path>
                    <path d="M103.569365,169.265323 L120,99.3306908 L113.954766,97.9473684 L96.8421053,170.863828 L99.942225,171.57086 C101.580275,171.897081 103.184386,170.877453 103.569365,169.265323 Z" id="Path" fill="#FFFFFF" fill-rule="nonzero"></path>
                    <path d="M103.569365,169.265323 L120,99.3306908 L113.954766,97.9473684 L96.8421053,170.863828 L99.942225,171.57086 C101.580275,171.897081 103.184386,170.877453 103.569365,169.265323 Z" id="Path" stroke="#7C7D7F" stroke-width="1.6" stroke-linecap="round" stroke-linejoin="round"></path>
                    <path d="M116.842105,129.36036 L144.704916,144.770507 C145.681359,145.325088 146.601336,145.975454 147.451524,146.712186 L179.159585,174.789474 L185.263158,167.824087 L151.083149,137.527738 C150.150691,136.719474 149.126211,136.026269 148.031363,135.462779 L118.91732,120.052632 L116.842105,129.36036 Z" id="Path" fill="#FFFFFF" fill-rule="nonzero"></path>
                    <path d="M116.842105,129.36036 L144.704916,144.770507 C145.681359,145.325088 146.601336,145.975454 147.451524,146.712186 L179.159585,174.789474 L185.263158,167.824087 L151.083149,137.527738 C150.150691,136.719474 149.126211,136.026269 148.031363,135.462779 L118.91732,120.052632 L116.842105,129.36036 Z" id="Path" stroke="#7C7D7F" stroke-width="1.6" stroke-linecap="round" stroke-linejoin="round"></path>
                    <circle id="Oval" fill="#DBE9F9" fill-rule="nonzero" cx="191.052632" cy="180.578947" r="18.4210526"></circle>
                    <circle id="Oval" stroke="#7C7D7F" stroke-width="1.6" stroke-linecap="round" stroke-linejoin="round" cx="191.052632" cy="180.578947" r="18.4210526"></circle>
                    <circle id="Oval" fill="#FFFFFF" fill-rule="nonzero" cx="191.578947" cy="181.105263" r="10.5263158"></circle>
                    <circle id="Oval" stroke="#7C7D7F" stroke-width="1.6" stroke-linecap="round" stroke-linejoin="round" cx="191.578947" cy="181.105263" r="10.5263158"></circle>
                    <path d="M108.382108,116.011197 L105.339657,129.127386 C105.142216,129.954995 105.33123,130.823944 105.857296,131.507114 C106.383361,132.190285 107.194193,132.619775 108.077863,132.68333 L114.892953,132.68333 C116.343167,132.717285 117.616694,131.765642 117.935403,130.409857 L120.977854,117.293668 C121.184452,116.417321 120.957652,115.498668 120.363158,114.803837 C119.768664,114.109007 118.872915,113.715651 117.935403,113.737724 L111.333285,113.737724 C109.917144,113.74519 108.693642,114.687729 108.382108,116.011197 Z" id="Path" fill="#FFFFFF" fill-rule="nonzero"></path>
                    <path d="M108.382108,116.011197 L105.339657,129.127386 C105.142216,129.954995 105.33123,130.823944 105.857296,131.507114 C106.383361,132.190285 107.194193,132.619775 108.077863,132.68333 L114.892953,132.68333 C116.343167,132.717285 117.616694,131.765642 117.935403,130.409857 L120.977854,117.293668 C121.184452,116.417321 120.957652,115.498668 120.363158,114.803837 C119.768664,114.109007 118.872915,113.715651 117.935403,113.737724 L111.333285,113.737724 C109.917144,113.74519 108.693642,114.687729 108.382108,116.011197 Z" id="Path" stroke="#7C7D7F" stroke-width="1.6" stroke-linecap="round" stroke-linejoin="round"></path>
                    <path d="M96.7903004,177.280345 C96.1257814,177.788044 95.2687774,178.021381 94.4163236,177.926711 C93.5638697,177.832041 92.7893122,177.417509 92.2707308,176.77842 C91.18767,175.512532 91.3992548,173.66773 92.7448115,172.644923 L100.07726,167.035176 C101.438763,165.999733 103.441018,166.191405 104.549422,167.463288 C105.657825,168.735172 105.452647,170.60563 104.091144,171.641073 L96.7903004,177.280345 Z" id="Path" stroke="#7C7D7F" stroke-width="1.6" fill="#FFFFFF" fill-rule="nonzero" stroke-linecap="round" stroke-linejoin="round"></path>
                    <rect id="Rectangle" fill="#FFFFFF" fill-rule="nonzero" x="83.1578947" y="172.684211" width="15.7894737" height="7.36842105" rx="1"></rect>
                    <rect id="Rectangle" stroke="#7C7D7F" stroke-width="1.6" stroke-linecap="round" stroke-linejoin="round" x="83.1578947" y="172.684211" width="15.7894737" height="7.36842105" rx="1"></rect>
                    <circle id="Oval" fill="#E6E8EB" fill-rule="nonzero" cx="191.052632" cy="180.578947" r="4.73684211"></circle>
                    <circle id="Oval" stroke="#7C7D7F" stroke-width="1.6" stroke-linecap="round" stroke-linejoin="round" cx="191.578947" cy="181.105263" r="4.73684211"></circle>
                    <path d="M110.70617,96.2710576 L123.947595,96.2687369 C124.49988,96.2686528 124.947663,96.7162999 124.947748,97.2685846 C124.947748,97.2686861 124.947748,97.2687877 124.947748,97.2688892 L124.946283,102.885442 C124.946199,103.437608 124.498601,103.885206 123.946435,103.88529 L110.70501,103.887915 C110.152725,103.887999 109.704942,103.440352 109.704858,102.888068 C109.704858,102.887966 109.704858,102.887865 109.704858,102.887763 L109.706323,97.2712099 C109.706407,96.7190441 110.154005,96.2714463 110.706171,96.2713622 Z" id="Rectangle" stroke="#7C7D7F" stroke-width="1.6" fill="#FFFFFF" fill-rule="nonzero" stroke-linecap="round" stroke-linejoin="round" transform="translate(117.326303, 100.078326) rotate(14.580000) translate(-117.326303, -100.078326) "></path>
                    <path d="M133.516373,94.4855741 L141.132927,94.4867344 L141.135813,113.447067 C141.13607,115.130588 139.772259,116.495144 138.089656,116.494888 L136.566346,116.494656 C134.883743,116.494399 133.519516,115.129428 133.51926,113.445907 L133.516373,94.4855741 Z" id="Path" stroke="#7C7D7F" stroke-width="1.6" fill="#FFFFFF" fill-rule="nonzero" stroke-linecap="round" stroke-linejoin="round" transform="translate(137.326093, 105.490231) rotate(-75.420000) translate(-137.326093, -105.490231) "></path>
                    <path d="M127.363743,108.410095 C126.800843,109.99667 125.128364,110.892489 123.502962,110.478019 C121.87756,110.063549 120.833103,108.474925 121.091918,106.810809 L124.114093,95.1262343 C124.57175,93.3777382 126.354024,92.3329271 128.094914,92.7925833 C129.835805,93.2522395 130.876071,95.0423005 130.418414,96.7907966 L127.363743,108.410095 Z" id="Path" stroke="#7C7D7F" stroke-width="1.6" fill="#FFFFFF" fill-rule="nonzero" stroke-linecap="round" stroke-linejoin="round"></path>
                    <path d="M11.5789474,23.0092105 C11.5789354,20.2655614 12.6707155,17.6347288 14.6132464,15.6975437 C16.5557773,13.7603586 19.1893017,12.6761385 21.9323944,12.6842558 L109.677094,12.6842558 C115.378278,12.6842558 120,17.3068955 120,23.0092105 L120,79.4604422 C120,85.1627573 115.378278,89.7853969 109.677094,89.7853969 L86.4658265,89.7853969 L86.4658265,105.242282 C86.4710452,106.983603 85.4201564,108.554209 83.8087472,109.213418 C82.2018239,109.859236 80.3648077,109.486957 79.1359526,108.266455 L60.6280208,89.938133 L21.9323944,89.938133 C16.2262493,89.9381578 11.5957797,85.320431 11.5789474,79.6131782 L11.5789474,23.0092105 Z" id="Path" stroke="#7C7D7F" stroke-width="1.6" fill="#FFFFFF" fill-rule="nonzero" stroke-linejoin="round"></path>
                    <circle id="Oval" stroke="#7C7D7F" stroke-width="1.6" fill="#FFF3E1" fill-rule="nonzero" stroke-linecap="round" stroke-linejoin="round" cx="65.7894737" cy="51.1052632" r="31.0526316"></circle>
                    <path d="M76.8421053,40.0526316 C75.0980482,40.0526316 73.6842105,41.4664692 73.6842105,43.2105263 C73.6842105,44.9545834 75.0980482,46.3684211 76.8421053,46.3684211 C78.5861624,46.3684211 80,44.9545834 80,43.2105263 C80,41.4664692 78.5861624,40.0526316 76.8421053,40.0526316 Z" id="Path" fill="#7C7D7F" fill-rule="nonzero"></path>
                    <path d="M55.7894737,40.0526316 C54.0454166,40.0526316 52.6315789,41.4664692 52.6315789,43.2105263 C52.6315789,44.9545834 54.0454166,46.3684211 55.7894737,46.3684211 C57.5335308,46.3684211 58.9473684,44.9545834 58.9473684,43.2105263 C58.9473684,41.4664692 57.5335308,40.0526316 55.7894737,40.0526316 Z" id="Path" fill="#7C7D7F" fill-rule="nonzero"></path>
                    <path d="M57.8947368,62.6047369 C62.0335382,58.6061403 67.440146,58.6061403 71.5789474,62.6047369" id="Path" stroke="#7C7D7F" stroke-width="1.6" stroke-linecap="round" stroke-linejoin="round"></path>
                </g>
            </g>
        </g>
    </g>
</svg>