<?xml version="1.0" encoding="UTF-8"?>
<svg width="64px" height="64px" viewBox="0 0 64 64" version="1.1" xmlns="http://www.w3.org/2000/svg" xmlns:xlink="http://www.w3.org/1999/xlink">
    <!-- Generator: Sketch 52.5 (67469) - http://www.bohemiancoding.com/sketch -->
    <title>Group 2</title>
    <desc>Created with Sketch.</desc>
    <g id="Invision-Sequence" stroke="none" stroke-width="1" fill="none" fill-rule="evenodd">
        <g id="2---new-rule---Text" transform="translate(-476.000000, -119.000000)">
            <g id="modal" transform="translate(420.000000, 28.000000)">
                <g id="Group-4" transform="translate(32.000000, 75.000000)">
                    <g id="course">
                        <g id="Group-2" transform="translate(24.000000, 16.000000)">
                            <circle id="Oval" fill="#FFFFFF" fill-rule="nonzero" cx="32" cy="32" r="32"></circle>
                            <path d="M33.5003,18 C37.6433,18 41.0003,21.357 41.0003,25.5 C41.0003,29.642 37.6433,33 33.5003,33 L29.0003,33 L29.0003,36 L25.0003,36 L25.0003,40 L19.0003,40 L19.0003,34 L26.1313,26.869 C26.0493,26.425 26.0003,25.968 26.0003,25.5 C26.0003,21.357 29.3573,18 33.5003,18 Z M32.5,35 C35.1520506,35.1385645 37.3187172,34.6385645 39,33.5 L41.1001515,34.5219241 L39.1001515,37.9860258 L42.5642532,39.9860258 L39.5642532,45.1821782 L34.3681007,42.1821782 C33.5329617,38.925176 32.9102615,36.5311166 32.5,35 Z" id="Stroke-2" fill="#ECF3FC"></path>
                            <path d="M25.3503,25.5 C25.3503,20.9980149 28.9983149,17.35 33.5003,17.35 C38.0022851,17.35 41.6503,20.9980149 41.6503,25.5 C41.6503,30.0013171 38.0019531,33.65 33.5003,33.65 L29.6503,33.65 L29.6503,36 C29.6503,36.3589851 29.3592851,36.65 29.0003,36.65 L25.6503,36.65 L25.6503,40 C25.6503,40.3589851 25.3592851,40.65 25.0003,40.65 L19.0003,40.65 C18.6413149,40.65 18.3503,40.3589851 18.3503,40 L18.3503,34 C18.3503,33.8276093 18.4187819,33.6622792 18.5406806,33.5403806 L25.4356351,26.6454261 C25.3793754,26.2589677 25.3503,25.8782333 25.3503,25.5 Z M28.3503,35.35 L28.3503,33 C28.3503,32.6410149 28.6413149,32.35 29.0003,32.35 L33.5003,32.35 C37.2839561,32.35 40.3503,29.2833737 40.3503,25.5 C40.3503,21.7159851 37.2843149,18.65 33.5003,18.65 C29.7162851,18.65 26.6503,21.7159851 26.6503,25.5 C26.6503,25.9067468 26.6911932,26.3215852 26.7704905,26.7509513 C26.8093433,26.9613252 26.7421919,27.1773469 26.5909194,27.3286194 L19.6503,34.2692388 L19.6503,39.35 L24.3503,39.35 L24.3503,36 C24.3503,35.6410149 24.6413149,35.35 25.0003,35.35 L28.3503,35.35 Z M34,27 C32.8954305,27 32,26.1045695 32,25 C32,23.8954305 32.8954305,23 34,23 C35.1045695,23 36,23.8954305 36,25 C36,26.1045695 35.1045695,27 34,27 Z M42.8892532,39.4231092 C43.2001434,39.6026018 43.3066622,40.0001355 43.1271697,40.3110258 L40.1271697,45.5071782 C39.9476771,45.8180684 39.5501434,45.9245872 39.2392532,45.7450947 L34.0431007,42.7450947 C33.893806,42.6588993 33.784867,42.5169272 33.740249,42.3504106 L31.8940724,35.4603857 C31.8011602,35.1136327 32.0069388,34.7572137 32.3536918,34.6643015 C32.7004447,34.5713893 33.0568637,34.777168 33.1497759,35.1239209 L34.9262684,41.7538811 L39.3263367,44.2942617 L41.6763367,40.2239423 L38.7751515,38.5489423 C38.4642613,38.3694497 38.3577425,37.971916 38.537235,37.6610258 L40.212235,34.7598407 L39.1974293,34.1739423 C38.8865391,33.9944497 38.7800202,33.596916 38.9595128,33.2860258 C39.1390053,32.9751355 39.5365391,32.8686167 39.8474293,33.0481092 L41.4251515,33.9590076 C41.7360418,34.1385002 41.8425606,34.5360339 41.6630681,34.8469241 L39.9880681,37.7481092 L42.8892532,39.4231092 Z" id="Stroke" fill="#4D7CC7" fill-rule="nonzero"></path>
                            <ellipse id="Oval" fill="#E4EFFB" fill-rule="nonzero" cx="31.6444444" cy="55.132875" rx="15.4469136" ry="1.362375"></ellipse>
                        </g>
                    </g>
                </g>
            </g>
        </g>
    </g>
</svg>