<svg id="Layer_1" data-name="Layer 1" xmlns="http://www.w3.org/2000/svg" viewBox="0 0 1521.36 310.25"><defs><style>.cls-1{fill:#f18321;}.cls-2{fill:#171b1e;}</style></defs><title>MindTickle logo</title><polygon class="cls-1" points="1443.31 164.25 1459.33 213.44 1508.92 228.13 1467.09 258.55 1468.46 310.25 1426.58 279.9 1377.82 297.15 1393.77 247.94 1362.3 206.9 1414.01 206.89 1443.31 164.25"/><polygon class="cls-2" points="1479.31 153.84 1521.36 13.38 1425.1 0 1418.45 144.57 1479.31 153.84"/><path class="cls-2" d="M253.49,494.7H214.66L197.14,357.75l-52.26,94L92.31,358,74.79,494.7H36l28.32-204.4H94.94l49.93,93.16,49.64-93.16h30.66Z" transform="translate(-35.96 -240.67)"/><path class="cls-2" d="M316.57,326.51H280.36V290.29h36.21Zm0,168.19H280.36v-146h36.21Z" transform="translate(-35.96 -240.67)"/><path class="cls-2" d="M479.2,494.7H443V416.15q0-20.45-6.86-30.23t-22-9.78a34.62,34.62,0,0,0-27.45,12.56v106H350.43v-146H384.3l.59,8.76q15.48-11.09,32.12-11.09,62.21,0,62.2,69.79Z" transform="translate(-35.96 -240.67)"/><path class="cls-2" d="M644.77,494.7H610.61l-.59-8.18a62.13,62.13,0,0,1-35.63,11.1q-17.23,0-30.51-5.85a62.61,62.61,0,0,1-22.34-16.2,73,73,0,0,1-13.87-24.1A88.48,88.48,0,0,1,502.85,422a87.35,87.35,0,0,1,5-29.64A71.61,71.61,0,0,1,522,368.27a64.91,64.91,0,0,1,22.49-16.07,73.57,73.57,0,0,1,29.92-5.84q19.57,0,34.17,9.63V275.7h36.21Zm-67.9-118.55q-17.46,0-27,12.41T540.23,422q0,21,9.6,33.43t27,12.4q16.87,0,25.15-12.26T610.3,422q0-21.32-8.29-33.59T576.87,376.14Z" transform="translate(-35.96 -240.67)"/><path class="cls-1" d="M764.54,326.51,734.76,494.7H697.38l29.78-168.19h-51.4l6.43-36.21H822.35l-6.42,36.21Z" transform="translate(-35.96 -240.67)"/><path class="cls-1" d="M816.52,494.7l25.69-146h36.5L853,494.7ZM846.3,326.51l6.14-36.21h36.5l-6.43,36.21Z" transform="translate(-35.96 -240.67)"/><path class="cls-1" d="M942.37,497.62q-13.15,0-22.93-4.82a46.23,46.23,0,0,1-16.21-13,56.17,56.17,0,0,1-9.62-19.12,82.66,82.66,0,0,1-3.22-23.51,107,107,0,0,1,5.4-33.87,91.67,91.67,0,0,1,15.62-29.06A77.15,77.15,0,0,1,936.24,354q14.6-7.59,33-7.59a93.84,93.84,0,0,1,13.87.87,62.34,62.34,0,0,1,10.07,2.33,31.48,31.48,0,0,1,7.45,3.51q3.06,2,6,4.08l-7.9,31a60.36,60.36,0,0,0-15-8.91,46.11,46.11,0,0,0-17.3-3.07,27.66,27.66,0,0,0-15.24,4.53,42.67,42.67,0,0,0-12.31,12.41,63.39,63.39,0,0,0-8.21,18.39A83.19,83.19,0,0,0,927.76,434q0,15.18,5.87,24.53t16.74,9.34a53.22,53.22,0,0,0,18.2-3.07,95,95,0,0,0,17.88-8.9l-2.62,30.95a90.79,90.79,0,0,1-16.35,7.59Q958.42,497.61,942.37,497.62Z" transform="translate(-35.96 -240.67)"/><path class="cls-1" d="M1014.77,494.7l38.55-219h36.5l-23.37,132.71,49.94-59.71h40.3l-58.4,69.93,31.83,76.07h-40l-27.46-65-11.39,65Z" transform="translate(-35.96 -240.67)"/><path class="cls-1" d="M1201.36,497.62h-13.72q-14.6,0-21.16-8.18T1159.9,469a58.58,58.58,0,0,1,.88-9.63l32.41-183.67h36.21l-29.78,168.78a99.76,99.76,0,0,0-1.76,14.6c0,4.48.93,7.06,2.78,7.74a26.83,26.83,0,0,0,8.61,1Z" transform="translate(-35.96 -240.67)"/><path class="cls-1" d="M1363.43,388.7q0,13.43-5.85,22.48a45.88,45.88,0,0,1-15.47,14.75,70.08,70.08,0,0,1-22.2,8.18,135.72,135.72,0,0,1-26.28,2.48q-7.3,0-13.29-.58c-4-.39-7-.78-8.9-1.17a40.77,40.77,0,0,0,3.64,15.33,30.86,30.86,0,0,0,7.74,10.22,29.23,29.23,0,0,0,10.36,5.69,40,40,0,0,0,11.83,1.75,65.94,65.94,0,0,0,11-1q6-1,12.12-2.63t12.12-3.8a104.21,104.21,0,0,0,10.66-4.53l-4.09,30.65a112.59,112.59,0,0,1-21.47,7.74,106.54,106.54,0,0,1-27.29,3.36q-16.65,0-28.77-4.82a54.58,54.58,0,0,1-20.15-13.43,53.85,53.85,0,0,1-11.83-20,77.07,77.07,0,0,1-3.8-24.52,93.8,93.8,0,0,1,5.84-32.56A90.08,90.08,0,0,1,1256,374a83.66,83.66,0,0,1,26-20,74.67,74.67,0,0,1,33.87-7.59q23.36,0,35.48,11.53T1363.43,388.7Zm-49.06-12.56A32.14,32.14,0,0,0,1299,379.8a43.9,43.9,0,0,0-11.83,9.05,52.48,52.48,0,0,0-8.17,11.67,65.93,65.93,0,0,0-4.68,11.25,59,59,0,0,0,13.44,1.17A107.54,107.54,0,0,0,1310,411q8.76-1.9,13.87-5.11a18.94,18.94,0,0,0,7.15-7.31,18.09,18.09,0,0,0,2-8.17q0-5-2.19-7.74a14.76,14.76,0,0,0-5.26-4.23,21.33,21.33,0,0,0-6.13-1.9A38.42,38.42,0,0,0,1314.37,376.14Z" transform="translate(-35.96 -240.67)"/></svg>