<?xml version="1.0" encoding="UTF-8"?>
<svg width="64px" height="64px" viewBox="0 0 64 64" version="1.1" xmlns="http://www.w3.org/2000/svg" xmlns:xlink="http://www.w3.org/1999/xlink">
    <!-- Generator: Sketch 52.5 (67469) - http://www.bohemiancoding.com/sketch -->
    <title>Group</title>
    <desc>Created with Sketch.</desc>
    <g id="Invision-Sequence" stroke="none" stroke-width="1" fill="none" fill-rule="evenodd">
        <g id="0.3---Profile-field-selection-Copy" transform="translate(-476.000000, -335.000000)">
            <g id="modal" transform="translate(420.000000, 28.000000)">
                <g id="Group-4" transform="translate(32.000000, 75.000000)">
                    <g id="course-copy-2" transform="translate(0.000000, 216.000000)">
                        <g id="Group" transform="translate(24.000000, 16.000000)">
                            <circle id="Oval" fill="#FFFFFF" fill-rule="nonzero" cx="32" cy="32" r="32"></circle>
                            <path d="M22,19 L28,19 C29.6568542,19 31,20.3431458 31,22 L31,28 C31,29.6568542 29.6568542,31 28,31 L22,31 C20.3431458,31 19,29.6568542 19,28 L19,22 C19,20.3431458 20.3431458,19 22,19 Z M22,33 L28,33 C29.6568542,33 31,34.3431458 31,36 L31,42 C31,43.6568542 29.6568542,45 28,45 L22,45 C20.3431458,45 19,43.6568542 19,42 L19,36 C19,34.3431458 20.3431458,33 22,33 Z M36,19 L42,19 C43.6568542,19 45,20.3431458 45,22 L45,28 C45,29.6568542 43.6568542,31 42,31 L36,31 C34.3431458,31 33,29.6568542 33,28 L33,22 C33,20.3431458 34.3431458,19 36,19 Z M36,33 L42,33 C43.6568542,33 45,34.3431458 45,36 L45,42 C45,43.6568542 43.6568542,45 42,45 L36,45 C34.3431458,45 33,43.6568542 33,42 L33,36 C33,34.3431458 34.3431458,33 36,33 Z" id="Rectangle-36-Copy-2" fill="#ECF3FC"></path>
                            <path d="M41.5208498,36.310779 C41.7634249,36.0461516 42.1745937,36.0282747 42.439221,36.2708498 C42.7038484,36.5134249 42.7217253,36.9245937 42.4791502,37.189221 L38.3541502,41.689221 C38.0965314,41.9702597 37.6534686,41.9702597 37.3958498,41.689221 L35.5208498,39.6437665 C35.2782747,39.3791391 35.2961516,38.9679703 35.560779,38.7253953 C35.8254063,38.4828202 36.2365751,38.5006971 36.4791502,38.7653244 L37.875,40.2880697 L41.5208498,36.310779 Z M22,20 C20.8954305,20 20,20.8954305 20,22 L20,28 C20,29.1045695 20.8954305,30 22,30 L28,30 C29.1045695,30 30,29.1045695 30,28 L30,22 C30,20.8954305 29.1045695,20 28,20 L22,20 Z M22,19 L28,19 C29.6568542,19 31,20.3431458 31,22 L31,28 C31,29.6568542 29.6568542,31 28,31 L22,31 C20.3431458,31 19,29.6568542 19,28 L19,22 C19,20.3431458 20.3431458,19 22,19 Z M23.875,26.2880697 L27.5208498,22.310779 C27.7634249,22.0461516 28.1745937,22.0282747 28.439221,22.2708498 C28.7038484,22.5134249 28.7217253,22.9245937 28.4791502,23.189221 L24.3541502,27.689221 C24.0965314,27.9702597 23.6534686,27.9702597 23.3958498,27.689221 L21.5208498,25.6437665 C21.2782747,25.3791391 21.2961516,24.9679703 21.560779,24.7253953 C21.8254063,24.4828202 22.2365751,24.5006971 22.4791502,24.7653244 L23.875,26.2880697 Z M22,34 C20.8954305,34 20,34.8954305 20,36 L20,42 C20,43.1045695 20.8954305,44 22,44 L28,44 C29.1045695,44 30,43.1045695 30,42 L30,36 C30,34.8954305 29.1045695,34 28,34 L22,34 Z M22,33 L28,33 C29.6568542,33 31,34.3431458 31,36 L31,42 C31,43.6568542 29.6568542,45 28,45 L22,45 C20.3431458,45 19,43.6568542 19,42 L19,36 C19,34.3431458 20.3431458,33 22,33 Z M36,20 C34.8954305,20 34,20.8954305 34,22 L34,28 C34,29.1045695 34.8954305,30 36,30 L42,30 C43.1045695,30 44,29.1045695 44,28 L44,22 C44,20.8954305 43.1045695,20 42,20 L36,20 Z M36,19 L42,19 C43.6568542,19 45,20.3431458 45,22 L45,28 C45,29.6568542 43.6568542,31 42,31 L36,31 C34.3431458,31 33,29.6568542 33,28 L33,22 C33,20.3431458 34.3431458,19 36,19 Z M36,34 C34.8954305,34 34,34.8954305 34,36 L34,42 C34,43.1045695 34.8954305,44 36,44 L42,44 C43.1045695,44 44,43.1045695 44,42 L44,36 C44,34.8954305 43.1045695,34 42,34 L36,34 Z M36,33 L42,33 C43.6568542,33 45,34.3431458 45,36 L45,42 C45,43.6568542 43.6568542,45 42,45 L36,45 C34.3431458,45 33,43.6568542 33,42 L33,36 C33,34.3431458 34.3431458,33 36,33 Z" id="Shape-Copy-81" fill="#4D7CC7" fill-rule="nonzero"></path>
                            <ellipse id="Oval" fill="#E4EFFB" fill-rule="nonzero" cx="31.6444444" cy="55.132875" rx="15.4469136" ry="1.362375"></ellipse>
                        </g>
                    </g>
                </g>
            </g>
        </g>
    </g>
</svg>