<?xml version="1.0" encoding="UTF-8"?>
<svg width="231px" height="200px" viewBox="0 0 231 200" version="1.1" xmlns="http://www.w3.org/2000/svg" xmlns:xlink="http://www.w3.org/1999/xlink">
    <!-- Generator: Sketch 51.2 (57519) - http://www.bohemiancoding.com/sketch -->
    <title>illustrations/No Search Results</title>
    <desc>Created with Sketch.</desc>
    <defs></defs>
    <g id="👥-group-coordinator-explorations" stroke="none" stroke-width="1" fill="none" fill-rule="evenodd">
        <g id="2.0.1---no-results-found" transform="translate(-604.000000, -521.000000)">
            <g id="illustrations/No-Search-Results" transform="translate(605.000000, 521.000000)">
                <g id="Group">
                    <g id="Group-5">
                        <path d="M218.406285,106.562703 C218.406285,47.7107862 171.171549,0 112.906846,0 C54.6395062,0 7.40740741,47.7107862 7.40740741,106.562703 C7.40740741,122.240741 10.7860269,137.11423 16.8074074,150.519818 L209.006285,150.519818 C215.027666,137.11423 218.406285,122.240741 218.406285,106.562703" id="Fill-1" fill="#F4F4F4"></path>
                        <path d="M9.87654321,150.617284 L215.600449,150.617284" id="Stroke-3" stroke="#7C7D7F" stroke-linecap="round" stroke-linejoin="round"></path>
                        <path d="M0,150.617284 L6.59371493,150.617284" id="Stroke-5" stroke="#7C7D7F" stroke-linecap="round" stroke-linejoin="round"></path>
                        <path d="M222.222222,150.617284 L228.815937,150.617284" id="Stroke-7" stroke="#7C7D7F" stroke-linecap="round" stroke-linejoin="round"></path>
                        <path d="M97.6965769,194.718973 C97.6965769,197.25783 84.1187991,199.31449 67.3681257,199.31449 C50.6148148,199.31449 37.037037,197.25783 37.037037,194.718973 C37.037037,192.180117 50.6148148,190.123457 67.3681257,190.123457 C84.1187991,190.123457 97.6965769,192.180117 97.6965769,194.718973" id="Fill-9" fill="#F0F2FF"></path>
                        <path d="M79.0123457,149.659584 C79.0123457,153.221442 81.8713805,156.111956 85.4003367,156.111956 C88.9266554,156.111956 91.7883277,153.221442 91.7883277,149.659584 L91.7883277,143.209877 L79.0123457,143.209877 L79.0123457,149.659584 Z" id="Fill-11" fill="#FFFFFF"></path>
                        <path d="M79.0123457,149.659584 C79.0123457,153.221442 81.8713805,156.111956 85.4003367,156.111956 C88.9266554,156.111956 91.7883277,153.221442 91.7883277,149.659584 L91.7883277,143.209877 L79.0123457,143.209877 L79.0123457,149.659584 Z" id="Stroke-13" stroke="#7C7D7F" stroke-linecap="round" stroke-linejoin="round"></path>
                        <path d="M94.1482604,112.818908 C94.1482604,95.5104613 80.2592593,81.4814815 63.1235129,81.4814815 C45.990404,81.4814815 32.1014029,95.5104613 32.1014029,112.818908 L32.0987654,125.17219 C32.0987654,133.406823 37.3236251,140.410656 44.5925365,143.034763 L41.5989899,170.248213 C41.5040404,171.111371 41.7809764,171.979857 42.3533109,172.62989 C42.9282828,173.277258 43.7538159,173.647563 44.6136364,173.647563 L85.3047699,173.647563 C86.1645903,173.647563 86.9848485,173.279922 87.5598204,172.635218 C88.1347924,171.990513 88.4117284,171.127355 88.3220539,170.264198 L85.4102694,142.312801 L91.117789,142.312801 C92.7899551,142.312801 94.1482604,140.940806 94.1482604,139.249123 L94.1482604,112.818908 Z" id="Fill-15" fill="#E6E8EB"></path>
                        <path d="M94.1482604,112.818908 C94.1482604,95.5104613 80.2592593,81.4814815 63.1235129,81.4814815 C45.990404,81.4814815 32.1014029,95.5104613 32.1014029,112.818908 L32.0987654,125.17219 C32.0987654,133.406823 37.3236251,140.410656 44.5925365,143.034763 L41.5989899,170.248213 C41.5040404,171.111371 41.7809764,171.979857 42.3533109,172.62989 C42.9282828,173.277258 43.7538159,173.647563 44.6136364,173.647563 L85.3047699,173.647563 C86.1645903,173.647563 86.9848485,173.279922 87.5598204,172.635218 C88.1347924,171.990513 88.4117284,171.127355 88.3220539,170.264198 L85.4102694,142.312801 L91.117789,142.312801 C92.7899551,142.312801 94.1482604,140.940806 94.1482604,139.249123 L94.1482604,112.818908 Z" id="Stroke-17" stroke="#7C7D7F" stroke-linecap="round" stroke-linejoin="round"></path>
                        <polyline id="Stroke-19" stroke="#7C7D7F" stroke-linecap="round" stroke-linejoin="round" points="86.4197531 113.580247 86.4197531 139.38707 86.804826 143.074139"></polyline>
                        <path d="M66.6666667,173.293437 L66.6666667,138.271605" id="Stroke-21" stroke="#7C7D7F" stroke-linecap="round" stroke-linejoin="round"></path>
                        <path d="M68.9951178,130.864198 C68.5071829,131.855231 68.0218855,132.800975 67.7897868,133.272515 C66.8534792,135.158674 65.6191358,136.805068 64.1975309,138.238337 L85.1101571,138.238337 L85.1101571,130.864198 L68.9951178,130.864198 Z" id="Fill-23" stroke="#979797" fill="#C1C7CD" opacity="0.800000012"></path>
                        <path d="M68.9951178,130.864198 C68.5071829,131.855231 68.0218855,132.800975 67.7897868,133.272515 C66.8534792,135.158674 65.6191358,136.805068 64.1975309,138.238337 L85.1101571,138.238337 L85.1101571,130.864198 L68.9951178,130.864198 Z" id="Stroke-25" stroke="#7C7D7F" stroke-linecap="round" stroke-linejoin="round"></path>
                        <path d="M51.8518519,118.518519 L59.152413,118.518519" id="Stroke-27" stroke="#7C7D7F" stroke-linecap="round" stroke-linejoin="round"></path>
                        <path d="M71.6049383,118.518519 L78.9054994,118.518519" id="Stroke-29" stroke="#7C7D7F" stroke-linecap="round" stroke-linejoin="round"></path>
                        <path d="M68.9951178,130.864198 C68.5071829,131.855231 68.0218855,132.800975 67.7897868,133.272515 C66.8534792,135.158674 65.6191358,136.805068 64.1975309,138.238337 L70.5090348,138.238337 L70.5090348,130.864198 L68.9951178,130.864198 Z" id="Fill-31" fill="#FFFFFF"></path>
                        <path d="M68.9951178,130.864198 C68.5071829,131.855231 68.0218855,132.800975 67.7897868,133.272515 C66.8534792,135.158674 65.6191358,136.805068 64.1975309,138.238337 L70.5090348,138.238337 L70.5090348,130.864198 L68.9951178,130.864198 Z" id="Stroke-33" stroke="#7C7D7F" stroke-linecap="round" stroke-linejoin="round"></path>
                        <path d="M44.4444444,143.798765 C46.417284,144.510071 48.5325477,144.917674 50.7453984,144.917674 C57.9061728,144.917674 64.3469136,140.897596 67.556734,134.423912 C68.0657688,133.390253 69.7854097,130.105458 70.0702581,128.991878 L58.4705948,123.922157 L56.1285073,128.653541 C55.0998878,130.726186 53.0400112,132.015595 50.7453984,132.015595 C47.4274411,132.015595 44.724018,129.287589 44.724018,125.933528 L44.724018,113.580247" id="Stroke-35" stroke="#7C7D7F" stroke-linecap="round" stroke-linejoin="round"></path>
                        <path d="M109.931706,170.455393 C112.141919,170.836355 115.037879,170.767089 118.126375,170.141033 C124.427329,168.870273 129.132604,165.801267 128.634119,163.289052 C128.138272,160.776836 122.625926,159.772482 116.327609,161.045907 C113.233838,161.669299 110.53569,162.729597 108.641975,163.939084 L109.931706,170.455393 Z" id="Fill-37" fill="#C1C7CD"></path>
                        <path d="M109.931706,170.455393 C112.141919,170.836355 115.037879,170.767089 118.126375,170.141033 C124.427329,168.870273 129.132604,165.801267 128.634119,163.289052 C128.138272,160.776836 122.625926,159.772482 116.327609,161.045907 C113.233838,161.669299 110.53569,162.729597 108.641975,163.939084 L109.931706,170.455393 Z" id="Stroke-39" stroke="#7C7D7F" stroke-linecap="round" stroke-linejoin="round"></path>
                        <path d="M101.043781,172.340026 C98.791368,172.795582 96.6866542,171.761923 96.343781,170.032943 C96.0009078,168.3013 97.5517496,166.529695 99.8041626,166.074139 L102.990246,165.432099 L104.232502,171.695322 L101.043781,172.340026 Z" id="Fill-41" fill="#C1C7CD"></path>
                        <path d="M101.043781,172.340026 C98.791368,172.795582 96.6866542,171.761923 96.343781,170.032943 C96.0009078,168.3013 97.5517496,166.529695 99.8041626,166.074139 L102.990246,165.432099 L104.232502,171.695322 L101.043781,172.340026 Z" id="Stroke-43" stroke="#7C7D7F" stroke-linecap="round" stroke-linejoin="round"></path>
                        <path d="M156.842649,170.455393 C159.055499,170.836355 161.948822,170.767089 165.039955,170.141033 C171.340909,168.870273 176.043547,165.801267 175.547699,163.289052 C175.049214,160.776836 169.539506,159.772482 163.238552,161.045907 C160.147419,161.669299 157.44927,162.729597 155.555556,163.939084 L156.842649,170.455393 Z" id="Fill-45" fill="#C1C7CD"></path>
                        <path d="M156.842649,170.455393 C159.055499,170.836355 161.948822,170.767089 165.039955,170.141033 C171.340909,168.870273 176.043547,165.801267 175.547699,163.289052 C175.049214,160.776836 169.539506,159.772482 163.238552,161.045907 C160.147419,161.669299 157.44927,162.729597 155.555556,163.939084 L156.842649,170.455393 Z" id="Stroke-47" stroke="#7C7D7F" stroke-linecap="round" stroke-linejoin="round"></path>
                        <path d="M147.959391,172.340026 C145.706978,172.795582 143.599627,171.761923 143.256754,170.032943 C142.916518,168.3013 144.464722,166.529695 146.719773,166.074139 L149.905856,165.432099 L151.148112,171.695322 L147.959391,172.340026 Z" id="Fill-49" fill="#C1C7CD"></path>
                        <path d="M147.959391,172.340026 C145.706978,172.795582 143.599627,171.761923 143.256754,170.032943 C142.916518,168.3013 144.464722,166.529695 146.719773,166.074139 L149.905856,165.432099 L151.148112,171.695322 L147.959391,172.340026 Z" id="Stroke-51" stroke="#7C7D7F" stroke-linecap="round" stroke-linejoin="round"></path>
                        <path d="M123.45679,195.106217 C125.492929,196.059953 128.301852,196.760603 131.445735,196.979056 C137.857464,197.421292 143.193098,195.708296 143.367172,193.153455 C143.541246,190.595951 138.485185,188.166321 132.076094,187.724086 C128.929574,187.505632 126.052076,187.812 123.905163,188.478017 L123.45679,195.106217 Z" id="Fill-53" fill="#C1C7CD"></path>
                        <path d="M123.45679,195.106217 C125.492929,196.059953 128.301852,196.760603 131.445735,196.979056 C137.857464,197.421292 143.193098,195.708296 143.367172,193.153455 C143.541246,190.595951 138.485185,188.166321 132.076094,187.724086 C128.929574,187.505632 126.052076,187.812 123.905163,188.478017 L123.45679,195.106217 Z" id="Stroke-55" stroke="#7C7D7F" stroke-linecap="round" stroke-linejoin="round"></path>
                        <path d="M115.054531,194.042334 C112.762556,193.88249 110.998078,192.326674 111.116764,190.56839 C111.238089,188.807441 113.192466,187.51004 115.487079,187.66722 L118.731186,187.891002 L118.296001,194.266116 L115.054531,194.042334 Z" id="Fill-57" fill="#C1C7CD"></path>
                        <path d="M115.054531,194.042334 C112.762556,193.88249 110.998078,192.326674 111.116764,190.56839 C111.238089,188.807441 113.192466,187.51004 115.487079,187.66722 L118.731186,187.891002 L118.296001,194.266116 L115.054531,194.042334 Z" id="Stroke-59" stroke="#7C7D7F" stroke-linecap="round" stroke-linejoin="round"></path>
                        <path d="M167.901235,195.106217 C169.934736,196.059953 172.746296,196.760603 175.89018,196.979056 C182.301908,197.421292 187.637542,195.708296 187.811616,193.153455 C187.983053,190.595951 182.926992,188.166321 176.517901,187.724086 C173.37138,187.505632 170.493883,187.812 168.349607,188.478017 L167.901235,195.106217 Z" id="Fill-61" fill="#C1C7CD"></path>
                        <path d="M167.901235,195.106217 C169.934736,196.059953 172.746296,196.760603 175.89018,196.979056 C182.301908,197.421292 187.637542,195.708296 187.811616,193.153455 C187.983053,190.595951 182.926992,188.166321 176.517901,187.724086 C173.37138,187.505632 170.493883,187.812 168.349607,188.478017 L167.901235,195.106217 Z" id="Stroke-63" stroke="#7C7D7F" stroke-linecap="round" stroke-linejoin="round"></path>
                        <path d="M159.498983,194.042334 C157.20437,193.88249 155.44253,192.326674 155.561217,190.56839 C155.679904,188.807441 157.636918,187.51004 159.928893,187.66722 L163.175639,187.891002 L162.740454,194.266116 L159.498983,194.042334 Z" id="Fill-65" fill="#C1C7CD"></path>
                        <path d="M159.498983,194.042334 C157.20437,193.88249 155.44253,192.326674 155.561217,190.56839 C155.679904,188.807441 157.636918,187.51004 159.928893,187.66722 L163.175639,187.891002 L162.740454,194.266116 L159.498983,194.042334 Z" id="Stroke-67" stroke="#7C7D7F" stroke-linecap="round" stroke-linejoin="round"></path>
                        <path d="M138.971324,106.428996 C138.971324,95.4850065 136.078002,74.809178 128.278956,65.1466049 C127.260887,63.8811728 125.290685,63.8811728 124.26734,65.1466049 C116.470932,74.806514 113.580247,95.4716862 113.580247,106.410348 C113.580247,122.821004 120.084287,137.734454 126.274467,137.734454 C132.477834,137.734454 138.971324,122.83166 138.971324,106.428996" id="Fill-69" fill="#FFFFFF"></path>
                        <path d="M138.971324,106.428996 C138.971324,95.4850065 136.078002,74.809178 128.278956,65.1466049 C127.260887,63.8811728 125.290685,63.8811728 124.26734,65.1466049 C116.470932,74.806514 113.580247,95.4716862 113.580247,106.410348 C113.580247,122.821004 120.084287,137.734454 126.274467,137.734454 C132.477834,137.734454 138.971324,122.83166 138.971324,106.428996 Z" id="Stroke-71" stroke="#7C7D7F" stroke-linecap="round" stroke-linejoin="round"></path>
                        <path d="M125.925926,151.540156 L125.925926,101.234568" id="Stroke-73" stroke="#7C7D7F" stroke-linecap="round" stroke-linejoin="round"></path>
                        <path d="M125.925926,119.992658 L132.271717,113.580247" id="Stroke-75" stroke="#7C7D7F" stroke-linecap="round" stroke-linejoin="round"></path>
                        <path d="M124.954433,112.648733 L120.987654,108.641975" id="Stroke-77" stroke="#7C7D7F" stroke-linecap="round" stroke-linejoin="round"></path>
                        <path d="M138.971324,106.428996 C138.971324,95.4850065 136.078002,74.809178 128.278956,65.1466049 C127.260887,63.8811728 125.290685,63.8811728 124.26734,65.1466049 C116.470932,74.806514 113.580247,95.4716862 113.580247,106.410348 C113.580247,122.821004 120.084287,137.734454 126.274467,137.734454 C132.477834,137.734454 138.971324,122.83166 138.971324,106.428996 Z" id="Stroke-79" stroke="#7C7D7F" stroke-linecap="round" stroke-linejoin="round"></path>
                        <path d="M171.07009,106.428996 C171.07009,95.4850065 168.179405,74.809178 160.380359,65.1466049 C159.359652,63.8811728 157.38945,63.8811728 156.368743,65.1466049 C148.569697,74.806514 145.679012,95.4716862 145.679012,106.410348 C145.679012,122.821004 152.18569,137.734454 158.37587,137.734454 C164.576599,137.734454 171.07009,122.83166 171.07009,106.428996" id="Fill-81" fill="#FFFFFF"></path>
                        <path d="M171.07009,106.428996 C171.07009,95.4850065 168.179405,74.809178 160.380359,65.1466049 C159.359652,63.8811728 157.38945,63.8811728 156.368743,65.1466049 C148.569697,74.806514 145.679012,95.4716862 145.679012,106.410348 C145.679012,122.821004 152.18569,137.734454 158.37587,137.734454 C164.576599,137.734454 171.07009,122.83166 171.07009,106.428996 Z" id="Stroke-83" stroke="#7C7D7F" stroke-linecap="round" stroke-linejoin="round"></path>
                        <path d="M158.024691,151.540156 L158.024691,101.234568" id="Stroke-85" stroke="#7C7D7F" stroke-linecap="round" stroke-linejoin="round"></path>
                        <path d="M158.024691,119.992658 L164.37312,113.580247" id="Stroke-87" stroke="#7C7D7F" stroke-linecap="round" stroke-linejoin="round"></path>
                        <path d="M159.522334,112.648733 L155.555556,108.641975" id="Stroke-89" stroke="#7C7D7F" stroke-linecap="round" stroke-linejoin="round"></path>
                        <path d="M171.07009,106.428996 C171.07009,95.4850065 168.179405,74.809178 160.380359,65.1466049 C159.359652,63.8811728 157.38945,63.8811728 156.368743,65.1466049 C148.569697,74.806514 145.679012,95.4716862 145.679012,106.410348 C145.679012,122.821004 152.18569,137.734454 158.37587,137.734454 C164.576599,137.734454 171.07009,122.83166 171.07009,106.428996 Z" id="Stroke-91" stroke="#7C7D7F" stroke-linecap="round" stroke-linejoin="round"></path>
                        <path d="M205.637991,106.428996 C205.637991,95.4850065 202.747306,74.809178 194.94826,65.1466049 C193.927553,63.8811728 191.957351,63.8811728 190.936644,65.1466049 C183.137598,74.806514 180.246914,95.4716862 180.246914,106.410348 C180.246914,122.821004 186.753591,137.734454 192.943771,137.734454 C199.144501,137.734454 205.637991,122.83166 205.637991,106.428996" id="Fill-93" fill="#FFFFFF"></path>
                        <path d="M205.637991,106.428996 C205.637991,95.4850065 202.747306,74.809178 194.94826,65.1466049 C193.927553,63.8811728 191.957351,63.8811728 190.936644,65.1466049 C183.137598,74.806514 180.246914,95.4716862 180.246914,106.410348 C180.246914,122.821004 186.753591,137.734454 192.943771,137.734454 C199.144501,137.734454 205.637991,122.83166 205.637991,106.428996 Z" id="Stroke-95" stroke="#7C7D7F" stroke-linecap="round" stroke-linejoin="round"></path>
                        <path d="M192.592593,151.540156 L192.592593,101.234568" id="Stroke-97" stroke="#7C7D7F" stroke-linecap="round" stroke-linejoin="round"></path>
                        <path d="M192.592593,119.992658 L198.941021,113.580247" id="Stroke-99" stroke="#7C7D7F" stroke-linecap="round" stroke-linejoin="round"></path>
                        <path d="M194.090236,112.648733 L190.123457,108.641975" id="Stroke-101" stroke="#7C7D7F" stroke-linecap="round" stroke-linejoin="round"></path>
                        <path d="M205.637991,106.428996 C205.637991,95.4850065 202.747306,74.809178 194.94826,65.1466049 C193.927553,63.8811728 191.957351,63.8811728 190.936644,65.1466049 C183.137598,74.806514 180.246914,95.4716862 180.246914,106.410348 C180.246914,122.821004 186.753591,137.734454 192.943771,137.734454 C199.144501,137.734454 205.637991,122.83166 205.637991,106.428996 Z" id="Stroke-103" stroke="#7C7D7F" stroke-linecap="round" stroke-linejoin="round"></path>
                        <polyline id="Stroke-105" stroke="#7C7D7F" stroke-linecap="round" stroke-linejoin="round" points="86.4197531 113.580247 86.4197531 139.38707 86.804826 143.074139"></polyline>
                        <path d="M64.7504796,79.0123457 C61.5195593,79.0123457 58.4073259,79.4945419 55.4638915,80.3816764 C54.0475616,80.8052632 52.8897052,81.8335932 52.2883584,83.1949318 C51.6896491,84.5562703 51.7081115,86.1147498 52.3358332,87.462768 L64.7504796,114.034178 L77.0622641,87.6785575 C77.6767984,86.3598441 77.7058107,84.8386615 77.1413887,83.4959714 C76.5743292,82.1532814 75.4692226,81.114295 74.1030049,80.6507472 C71.4074942,79.734308 68.3216356,79.1588694 64.7504796,79.0123457" id="Fill-107" fill="#FFFFFF"></path>
                        <path d="M73.9276655,81.4814815 L66.6666667,89.6814815 L75.4178451,96.7519168 L78.9810887,89.1273554 C79.5956229,87.808642 79.6246352,86.2874594 79.0575758,84.9447693 C78.4931538,83.6020793 77.3880471,82.5630929 76.0191919,82.0995452 C75.346633,81.8704353 74.6503367,81.6653021 73.9276655,81.4814815 Z" id="Stroke-109" stroke="#7C7D7F" stroke-linecap="round" stroke-linejoin="round"></path>
                        <path d="M57.3561879,81.4814815 L64.7437861,89.8226771 L55.9899702,96.8957765 L52.3370521,89.0687459 C51.7040555,87.7180637 51.690868,86.1595841 52.2948523,84.7982456 C52.8988366,83.4369071 54.0593304,82.4059129 55.4756604,81.9823262 C56.0954696,81.7985055 56.7231913,81.6306693 57.3561879,81.4814815 Z" id="Stroke-111" stroke="#7C7D7F" stroke-linecap="round" stroke-linejoin="round"></path>
                        <path d="M66.6468575,79.0123457 C64.1016835,79.0123457 61.6356341,79.3267057 59.2592593,79.8888239 C62.6431538,83.7117609 66.6468575,88.2300195 66.6468575,88.2300195 L73.9078563,80.0300195 C71.7319304,79.4758934 69.3265432,79.1242365 66.6468575,79.0123457" id="Fill-113" fill="#FFFFFF"></path>
                        <path d="M66.6468575,79.0123457 C64.1016835,79.0123457 61.6356341,79.3267057 59.2592593,79.8888239 C62.6431538,83.7117609 66.6468575,88.2300195 66.6468575,88.2300195 L73.9078563,80.0300195 C71.7319304,79.4758934 69.3265432,79.1242365 66.6468575,79.0123457 Z" id="Stroke-115" stroke="#7C7D7F" stroke-linejoin="round"></path>
                        <polygon id="Fill-117" fill="#C1C7CD" points="66.4125701 88.8888889 61.7283951 104.662833 66.4125701 114.695712 71.0967452 104.665497"></polygon>
                        <polygon id="Stroke-119" stroke="#7C7D7F" stroke-linejoin="round" points="66.4125701 88.8888889 61.7283951 104.662833 66.4125701 114.695712 71.0967452 104.665497"></polygon>
                        <path d="M89.4236813,82.0378817 C89.4236813,74.911501 83.7029742,69.1358025 76.6476992,69.1358025 L54.7486532,69.1358025 C47.6933782,69.1358025 41.9753086,74.911501 41.9753086,82.0378817 L47.448092,85.7249513 L43.7978114,94.9426251 L65.6994949,115.218843 L53.2848485,88.6421053 C52.6571268,87.2967511 52.6413019,85.7409357 53.2400112,84.3795971 C53.841358,83.0209227 54.9992144,81.9872645 56.4129068,81.5610136 C59.3774411,80.668551 62.5081369,80.194347 65.6994949,80.194347 C69.352413,80.3435348 72.4989338,80.945614 75.2340067,81.8966862 C78.0218294,82.8637427 79.2825477,86.1378817 78.0271044,88.82859 L65.6994949,115.218843 L87.598541,94.9426251 L83.9482604,85.7249513 L89.4236813,82.0378817 Z" id="Fill-121" fill="#E6E8EB"></path>
                        <path d="M89.4236813,82.0378817 C89.4236813,74.911501 83.7029742,69.1358025 76.6476992,69.1358025 L54.7486532,69.1358025 C47.6933782,69.1358025 41.9753086,74.911501 41.9753086,82.0378817 L47.448092,85.7249513 L43.7978114,94.9426251 L65.6994949,115.218843 L53.2848485,88.6421053 C52.6571268,87.2967511 52.6413019,85.7409357 53.2400112,84.3795971 C53.841358,83.0209227 54.9992144,81.9872645 56.4129068,81.5610136 C59.3774411,80.668551 62.5081369,80.194347 65.6994949,80.194347 C69.352413,80.3435348 72.4989338,80.945614 75.2340067,81.8966862 C78.0218294,82.8637427 79.2825477,86.1378817 78.0271044,88.82859 L65.6994949,115.218843 L87.598541,94.9426251 L83.9482604,85.7249513 L89.4236813,82.0378817 Z" id="Stroke-123" stroke="#7C7D7F" stroke-linecap="round" stroke-linejoin="round"></path>
                        <path d="M66.3555867,29.6296296 C56.2830278,29.6296296 48.1173712,37.882911 48.1173712,48.0623132 L48.1173712,51.7493827 C42.9083365,51.7493827 43.2643971,60.9670565 49.0299414,60.9670565 L49.0457663,60.9617284 C51.3773039,68.4237817 58.2004801,73.8691358 66.3555867,73.8691358 C76.4281457,73.8691358 84.5938022,65.6158545 84.5938022,55.4364522 L84.5938022,48.0623132 C84.5938022,37.882911 76.4281457,29.6296296 66.3555867,29.6296296" id="Fill-125" fill="#FFFFFF"></path>
                        <path d="M66.3555867,29.6296296 C56.2830278,29.6296296 48.1173712,37.882911 48.1173712,48.0623132 L48.1173712,51.7493827 C42.9083365,51.7493827 43.2643971,60.9670565 49.0299414,60.9670565 L49.0457663,60.9617284 C51.3773039,68.4237817 58.2004801,73.8691358 66.3555867,73.8691358 C76.4281457,73.8691358 84.5938022,65.6158545 84.5938022,55.4364522 L84.5938022,48.0623132 C84.5938022,37.882911 76.4281457,29.6296296 66.3555867,29.6296296 Z" id="Stroke-127" stroke="#7C7D7F" stroke-linecap="round" stroke-linejoin="round"></path>
                        <path d="M55.5021324,56.1645224 C55.5021324,57.1821962 54.6845118,58.0080572 53.6769921,58.0080572 C52.6694725,58.0080572 51.8518519,57.1821962 51.8518519,56.1645224 C51.8518519,55.1468486 52.6694725,54.3209877 53.6769921,54.3209877 C54.6845118,54.3209877 55.5021324,55.1468486 55.5021324,56.1645224" id="Fill-129" fill="#C1C7CD"></path>
                        <path d="M67.5699776,56.7568551 L61.8967452,56.7568551 C60.4382155,56.7568551 59.2592593,55.5633528 59.2592593,54.0927875 L59.2592593,49.382716 L70.2074635,49.382716 L70.2074635,54.0927875 C70.2074635,55.5633528 69.0258698,56.7568551 67.5699776,56.7568551" id="Fill-131" fill="#DBE9F9"></path>
                        <path d="M67.5699776,56.7568551 L61.8967452,56.7568551 C60.4382155,56.7568551 59.2592593,55.5633528 59.2592593,54.0927875 L59.2592593,49.382716 L70.2074635,49.382716 L70.2074635,54.0927875 C70.2074635,55.5633528 69.0258698,56.7568551 67.5699776,56.7568551 Z" id="Stroke-133" stroke="#7C7D7F" stroke-linecap="round" stroke-linejoin="round"></path>
                        <path d="M79.1806958,56.7568551 L84.8539282,56.7568551 C86.3124579,56.7568551 87.4914141,55.5633528 87.4914141,54.0927875 L87.4914141,49.382716 L76.5432099,49.382716 L76.5432099,54.0927875 C76.5432099,55.5633528 77.7221661,56.7568551 79.1806958,56.7568551" id="Fill-135" fill="#DBE9F9"></path>
                        <path d="M79.1806958,56.7568551 L84.8539282,56.7568551 C86.3124579,56.7568551 87.4914141,55.5633528 87.4914141,54.0927875 L87.4914141,49.382716 L76.5432099,49.382716 L76.5432099,54.0927875 C76.5432099,55.5633528 77.7221661,56.7568551 79.1806958,56.7568551 Z" id="Stroke-137" stroke="#7C7D7F" stroke-linecap="round" stroke-linejoin="round"></path>
                        <path d="M76.4363636,51.8518519 L69.1358025,51.8518519" id="Stroke-139" stroke="#7C7D7F" stroke-linecap="round" stroke-linejoin="round"></path>
                        <path d="M69.2984293,120.735543 C68.5361958,122.054256 66.8587547,122.499155 65.5531992,121.72924 C64.2476436,120.95666 63.809821,119.264977 64.5720544,117.946264 L74.241078,101.234568 L78.9674528,104.026511 L69.2984293,120.735543 Z" id="Fill-141" fill="#E6E8EB"></path>
                        <path d="M69.2984293,120.735543 C68.5361958,122.054256 66.8587547,122.499155 65.5531992,121.72924 C64.2476436,120.95666 63.809821,119.264977 64.5720544,117.946264 L74.241078,101.234568 L78.9674528,104.026511 L69.2984293,120.735543 Z" id="Stroke-143" stroke="#7C7D7F" stroke-linecap="round" stroke-linejoin="round"></path>
                        <path d="M91.2420437,101.980537 C87.9346363,107.694962 80.6709999,109.618419 75.01623,106.277678 C69.3588226,102.939602 67.4519202,95.6000954 70.7593276,89.8883345 C74.0640975,84.1739096 81.3303714,82.2504528 86.9877788,85.5911935 C92.6425487,88.9292702 94.5468136,96.2661123 91.2420437,101.980537" id="Fill-145" fill="#DBE9F9"></path>
                        <path d="M86.9416983,85.5906031 C81.2842909,82.2498623 74.0206546,84.1759832 70.7158847,89.8877441 C69.3074671,92.3173737 68.8960193,95.0320585 69.2626299,97.6162041 L91.9581967,91.6034036 C91.0245266,89.1711099 89.3444481,87.0105511 86.9416983,85.5906031" id="Fill-147" fill="#FFFFFF"></path>
                        <path d="M91.2420437,101.980537 C87.9346363,107.694962 80.6709999,109.618419 75.01623,106.277678 C69.3588226,102.939602 67.4519202,95.6000954 70.7593276,89.8883345 C74.0640975,84.1739096 81.3303714,82.2504528 86.9877788,85.5911935 C92.6425487,88.9292702 94.5468136,96.2661123 91.2420437,101.980537 Z" id="Stroke-149" stroke="#7C7D7F" stroke-linecap="round" stroke-linejoin="round"></path>
                        <path d="M73.8577441,61.7283951 C66.5571829,61.7283951 66.5571829,65.4154646 59.2592593,65.4154646 C64.7320426,72.7869396 73.8577441,67.2589994 73.8577441,67.2589994 C73.8577441,67.2589994 82.9834456,72.7869396 88.456229,65.4154646 C81.1583053,65.4154646 81.1583053,61.7283951 73.8577441,61.7283951" id="Fill-151" fill="#FFFFFF"></path>
                        <path d="M73.8577441,61.7283951 C66.5571829,61.7283951 66.5571829,65.4154646 59.2592593,65.4154646 C64.7320426,72.7869396 73.8577441,67.2589994 73.8577441,67.2589994 C73.8577441,67.2589994 82.9834456,72.7869396 88.456229,65.4154646 C81.1583053,65.4154646 81.1583053,61.7283951 73.8577441,61.7283951 Z" id="Stroke-153" stroke="#7C7D7F" stroke-linejoin="round"></path>
                        <path d="M73.3724467,122.502235 C74.7571268,119.265393 73.2880471,115.506393 70.0835017,114.107758 C66.8789562,112.706458 63.160101,114.193008 61.7727834,117.42985 L59.2592593,123.288135 L70.86156,128.360519 L73.3724467,122.502235 Z" id="Fill-155" fill="#FFFFFF"></path>
                        <path d="M73.3724467,122.502235 C74.7571268,119.265393 73.2880471,115.506393 70.0835017,114.107758 C66.8789562,112.706458 63.160101,114.193008 61.7727834,117.42985 L59.2592593,123.288135 L70.86156,128.360519 L73.3724467,122.502235 Z" id="Stroke-157" stroke="#7C7D7F" stroke-linecap="round" stroke-linejoin="round"></path>
                        <path d="M58.9532548,185.168811 L59.8368126,172.839506 L44.4444444,172.839506 L44.4444444,183.900715 L52.4808642,183.900715 C54.6699776,183.900715 56.9566779,184.305653 58.9532548,185.168811" id="Fill-159" fill="#FFFFFF"></path>
                        <path d="M58.9532548,185.168811 L59.8368126,172.839506 L44.4444444,172.839506 L44.4444444,183.900715 L52.4808642,183.900715 C54.6699776,183.900715 56.9566779,184.305653 58.9532548,185.168811 Z" id="Stroke-161" stroke="#7C7D7F" stroke-linecap="round" stroke-linejoin="round"></path>
                        <path d="M77.9661055,183.900715 C80.1868687,183.900715 82.5131313,184.324301 84.5281706,185.216764 L84.5281706,172.839506 L69.1358025,172.839506 L69.9270483,183.900715 L77.9661055,183.900715 Z" id="Fill-163" fill="#D6DAFF"></path>
                        <path d="M77.9661055,183.900715 C80.1868687,183.900715 82.5131313,184.324301 84.5281706,185.216764 L84.5281706,172.839506 L69.1358025,172.839506 L69.9270483,183.900715 L77.9661055,183.900715 Z" id="Fill-165" fill="#FFFFFF"></path>
                        <path d="M77.9661055,183.900715 C80.1868687,183.900715 82.5131313,184.324301 84.5281706,185.216764 L84.5281706,172.839506 L69.1358025,172.839506 L69.9270483,183.900715 L77.9661055,183.900715 Z" id="Stroke-167" stroke="#7C7D7F" stroke-linecap="round" stroke-linejoin="round"></path>
                        <path d="M91.678844,194.400195 C91.678844,187.798635 85.2934905,185.185185 79.6439955,185.185185 L71.6049383,185.185185 L71.6049383,191.336517 C71.6049383,193.0282 72.9632435,194.400195 74.6380471,194.400195 L91.678844,194.400195 Z" id="Fill-169" fill="#FFFFFF"></path>
                        <path d="M91.678844,194.400195 C91.678844,187.798635 85.2934905,185.185185 79.6439955,185.185185 L71.6049383,185.185185 L71.6049383,191.336517 C71.6049383,193.0282 72.9632435,194.400195 74.6380471,194.400195 L91.678844,194.400195 Z" id="Stroke-171" stroke="#7C7D7F" stroke-linecap="round" stroke-linejoin="round"></path>
                        <path d="M64.5183502,194.400195 C64.5183502,187.798635 58.1303591,185.185185 52.4808642,185.185185 L44.4444444,185.185185 L44.4444444,191.336517 C44.4444444,193.0282 45.8001122,194.400195 47.4775533,194.400195 L64.5183502,194.400195 Z" id="Fill-173" fill="#FFFFFF"></path>
                        <path d="M64.5183502,194.400195 C64.5183502,187.798635 58.1303591,185.185185 52.4808642,185.185185 L44.4444444,185.185185 L44.4444444,191.336517 C44.4444444,193.0282 45.8001122,194.400195 47.4775533,194.400195 L64.5183502,194.400195 Z" id="Stroke-175" stroke="#7C7D7F" stroke-linecap="round" stroke-linejoin="round"></path>
                        <path d="M37.037037,49.382716 L91.7859708,49.382716" id="Stroke-177" stroke="#7C7D7F" stroke-linecap="round" stroke-linejoin="round"></path>
                        <path d="M74.324523,24.7571522 C73.8946128,24.829082 73.5227273,25.0981528 73.2642536,25.4498097 C72.2356341,26.8244686 69.2895623,30.3836629 66.3461279,30.3836629 C63.4000561,30.3836629 60.4539843,26.8244686 59.4280022,25.4498097 C59.1642536,25.0981528 58.7950056,24.829082 58.3650954,24.7571522 C50.4183502,23.4544231 44.4444444,41.8258331 44.4444444,50.7238188 L88.2425365,50.7238188 C87.5093154,41.8524738 82.2422559,23.4544231 74.324523,24.7571522" id="Fill-179" fill="#FFFFFF"></path>
                        <path d="M74.324523,24.7571522 C73.8946128,24.829082 73.5227273,25.0981528 73.2642536,25.4498097 C72.2356341,26.8244686 69.2895623,30.3836629 66.3461279,30.3836629 C63.4000561,30.3836629 60.4539843,26.8244686 59.4280022,25.4498097 C59.1642536,25.0981528 58.7950056,24.829082 58.3650954,24.7571522 C50.4183502,23.4544231 44.4444444,41.8258331 44.4444444,50.7238188 L88.2425365,50.7238188 C87.5093154,41.8524738 82.2422559,23.4544231 74.324523,24.7571522 Z" id="Stroke-181" stroke="#7C7D7F" stroke-linecap="round" stroke-linejoin="round"></path>
                        <path d="M45.3781145,41.9753086 C44.7820426,44.6979857 44.4444444,47.2847953 44.4444444,49.3494477 L88.245174,49.3494477 C88.0737374,47.2847953 87.6464646,44.7006498 87.008193,41.9753086 L45.3781145,41.9753086 Z" id="Fill-183" fill="#C1C7CD"></path>
                        <path d="M45.3781145,41.9753086 C44.7820426,44.6979857 44.4444444,47.2847953 44.4444444,49.3494477 L88.245174,49.3494477 C88.0737374,47.2847953 87.6464646,44.7006498 87.008193,41.9753086 L45.3781145,41.9753086 Z" id="Stroke-185" stroke="#7C7D7F" stroke-linecap="round" stroke-linejoin="round"></path>
                    </g>
                </g>
            </g>
        </g>
    </g>
</svg>