<?xml version="1.0" encoding="UTF-8"?>
<svg width="226px" height="220px" viewBox="0 0 226 220" version="1.1" xmlns="http://www.w3.org/2000/svg" xmlns:xlink="http://www.w3.org/1999/xlink">
    <!-- Generator: Sketch 53 (72520) - https://sketchapp.com -->
    <title>05- search-location-globe</title>
    <desc>Created with Sketch.</desc>
    <g id="Page-1" stroke="none" stroke-width="1" fill="none" fill-rule="evenodd">
        <g id="StyleGuide-Errors-404FullScreen" transform="translate(-608.000000, -188.000000)">
            <g id="05--search-location-globe" transform="translate(608.000000, 188.000000)">
                <g id="Background" fill="#E6E8EB" fill-rule="nonzero">
                    <circle id="Oval" cx="110.76" cy="110" r="110"></circle>
                </g>
                <ellipse id="Oval" fill="#C1C7CD" fill-rule="nonzero" cx="102.51" cy="195.25" rx="33" ry="4.125"></ellipse>
                <circle id="Oval" fill="#FFFFFF" fill-rule="nonzero" cx="102.51" cy="101.75" r="68.75"></circle>
                <path d="M159.71,139.8925 C150.36,134.3925 134.96,123.64 114.6925,103.345 L114.6925,103.345 C113.015,105.105 111.2825,106.8925 109.44,108.845 C107.5975,110.7975 105.5625,112.695 103.665,114.345 L103.665,114.345 C72.095,144.4025 54,150.37 54,150.37 L54,150.37 C80.4162613,176.791992 123.098442,177.280486 150.1125,151.47 L150.1125,151.47 C153.725387,147.973387 156.943803,144.091 159.71,139.8925 Z" id="Path" fill="#FFFFFF" fill-rule="nonzero"></path>
                <path d="M139.47,43.8075 C137.1325,49.3075 127.6725,68.365 98.385,97.625 C69.0975,126.885 50.04,136.3725 44.5675,138.71 C47.2811297,142.926066 50.443768,146.835567 54,150.37 C54,150.37 74.4325,143.6875 109.495,108.625 C144.5575,73.5625 151.13,53.13 151.13,53.13 C147.58993,49.6121907 143.68064,46.4866028 139.47,43.8075 Z" id="Path" fill="#DBE9F9" fill-rule="nonzero"></path>
                <path d="M139.47,43.8075 C137.1325,49.3075 127.6725,68.365 98.385,97.625 C69.0975,126.885 50.04,136.3725 44.5675,138.71 C47.2811297,142.926066 50.443768,146.835567 54,150.37 C54,150.37 74.4325,143.6875 109.495,108.625 C144.5575,73.5625 151.13,53.13 151.13,53.13 C147.58993,49.6121907 143.68064,46.4866028 139.47,43.8075 Z" id="Path" stroke="#7C7D7F" stroke-width="1.6" stroke-linecap="round" stroke-linejoin="round"></path>
                <circle id="Oval" stroke="#7C7D7F" stroke-width="1.6" stroke-linecap="round" stroke-linejoin="round" cx="102.51" cy="101.75" r="68.75"></circle>
                <path d="M47.51,89.375 C47.51,93.17 54.385,101.75 54.385,101.75 C54.385,101.75 61.26,93.17 61.26,89.375 C61.26,85.5780423 58.1819577,82.5 54.385,82.5 C50.5880423,82.5 47.51,85.5780423 47.51,89.375 L47.51,89.375 Z" id="Path" stroke="#7C7D7F" stroke-width="1.6" fill="#DBE9F9" fill-rule="nonzero" stroke-linecap="round" stroke-linejoin="round"></path>
                <path d="M99.76,49.5 C99.76,53.295 106.635,61.875 106.635,61.875 C106.635,61.875 113.51,53.295 113.51,49.5 C113.51,45.7030423 110.431958,42.625 106.635,42.625 C102.838042,42.625 99.76,45.7030423 99.76,49.5 Z" id="Path" stroke="#7C7D7F" stroke-width="1.6" fill="#DBE9F9" fill-rule="nonzero" stroke-linecap="round" stroke-linejoin="round"></path>
                <path d="M54.385,44 C54.385,47.795 61.26,56.375 61.26,56.375 C61.26,56.375 68.135,47.795 68.135,44 C68.135,40.2030423 65.0569577,37.125 61.26,37.125 C57.4630423,37.125 54.385,40.2030423 54.385,44 Z" id="Path" stroke="#7C7D7F" stroke-width="1.6" fill="#DBE9F9" fill-rule="nonzero" stroke-linecap="round" stroke-linejoin="round"></path>
                <path d="M118.8175,95.755 C118.8175,108.4325 138.0675,136.51 144.31,145.53 C144.785855,146.186757 145.547721,146.575573 146.35875,146.575573 C147.169779,146.575573 147.931645,146.186757 148.4075,145.53 C154.7875,136.51 173.9275,108.4325 173.9275,95.755 C173.9275,80.5671694 161.615331,68.255 146.4275,68.255 C131.239669,68.255 118.9275,80.5671694 118.9275,95.755 L118.8175,95.755 Z" id="Path" stroke="#7C7D7F" stroke-width="1.6" fill="#FFFFFF" fill-rule="nonzero" stroke-linecap="round" stroke-linejoin="round"></path>
                <path d="M133.75,95.755 C133.738872,100.829444 136.787079,105.410416 141.472064,107.360038 C146.157049,109.309659 151.555231,108.243589 155.14735,104.659347 C158.739469,101.075105 159.817388,95.6792769 157.878057,90.9900231 C155.938726,86.3007692 151.364456,83.2425122 146.29,83.2425 C139.375074,83.2424834 133.765164,88.8400911 133.75,95.755 L133.75,95.755 Z" id="Path" stroke="#7C7D7F" stroke-width="1.6" fill="#FFFFFF" fill-rule="nonzero" stroke-linecap="round" stroke-linejoin="round"></path>
                <path d="M221.255,194.0675 C223.87779,196.439215 224.979005,200.063935 224.118778,203.493815 C223.258552,206.923694 220.577091,209.599705 217.145468,210.452951 C213.713846,211.306197 210.091374,210.19761 207.725,207.57 L182.3975,182.215 L195.9,168.7125 L221.255,194.0675 Z" id="Path" fill="#FFF3E1" fill-rule="nonzero"></path>
                <path d="M221.255,194.0675 C223.87779,196.439215 224.979005,200.063935 224.118778,203.493815 C223.258552,206.923694 220.577091,209.599705 217.145468,210.452951 C213.713846,211.306197 210.091374,210.19761 207.725,207.57 L182.3975,182.215 L195.9,168.7125 L221.255,194.0675 Z" id="Path" stroke="#7C7D7F" stroke-width="1.6" stroke-linecap="round" stroke-linejoin="round"></path>
                <polygon id="Rectangle" stroke="#7C7D7F" stroke-width="1.6" fill="#FFFFFF" fill-rule="nonzero" stroke-linecap="round" stroke-linejoin="round" transform="translate(180.699509, 167.003644) rotate(-45.010000) translate(-180.699509, -167.003644) " points="175.914509 155.054894 185.484509 155.054894 185.484509 178.952394 175.914509 178.952394"></polygon>
                <path d="M177.31,102.795 C194.10455,119.592132 194.103155,146.823356 177.306884,163.618767 C160.510612,180.414178 133.279388,180.414178 116.483116,163.618767 C99.686845,146.823356 99.6854497,119.592132 116.48,102.795 C133.283268,86.0106088 160.506732,86.0106088 177.31,102.795 Z" id="Path" stroke="#7C7D7F" stroke-width="1.6" fill="#FFF3E1" fill-rule="nonzero" stroke-linecap="round" stroke-linejoin="round"></path>
                <path d="M168.106438,112.027922 C179.801241,123.748991 179.78588,142.7272 168.072118,154.429329 C156.358356,166.131459 137.376644,166.131459 125.662882,154.429329 C113.94912,142.7272 113.933759,123.748991 125.628562,112.027922 C131.253254,106.380573 138.89621,103.205926 146.8675,103.205926 C154.83879,103.205926 162.481746,106.380573 168.106438,112.027922 L168.106438,112.027922 Z" id="Path" fill="#FFFFFF" fill-rule="nonzero"></path>
                <path d="M168.8675,111.265 C180.981367,123.408312 180.965456,143.070196 168.83195,155.193886 C156.698445,167.317577 137.036555,167.317577 124.90305,155.193886 C112.769544,143.070196 112.753633,123.408312 124.8675,111.265 C130.693743,105.41421 138.610572,102.125199 146.8675,102.125199 C155.124428,102.125199 163.041257,105.41421 168.8675,111.265 L168.8675,111.265 Z" id="Path" stroke="#7C7D7F" stroke-width="1.6" stroke-linecap="round" stroke-linejoin="round"></path>
                <path d="M168.8675,111.265 C163.037653,105.420983 155.122174,102.136654 146.8675,102.136654 C138.612826,102.136654 130.697347,105.420983 124.8675,111.265 L123.9325,112.255 C129.876083,123.833066 136.668821,134.95514 144.255,145.53 C144.730855,146.186757 145.492721,146.575573 146.30375,146.575573 C147.114779,146.575573 147.876645,146.186757 148.3525,145.53 C156.124989,134.743844 163.048294,123.370499 169.06,111.5125 L168.8675,111.265 Z" id="Path" fill="#FFFFFF" fill-rule="nonzero"></path>
                <path d="M168.8675,111.265 C163.037653,105.420983 155.122174,102.136654 146.8675,102.136654 C138.612826,102.136654 130.697347,105.420983 124.8675,111.265 L123.9325,112.255 C129.876083,123.833066 136.668821,134.95514 144.255,145.53 C144.730855,146.186757 145.492721,146.575573 146.30375,146.575573 C147.114779,146.575573 147.876645,146.186757 148.3525,145.53 C156.124989,134.743844 163.048294,123.370499 169.06,111.5125 L168.8675,111.265 Z" id="Path" stroke="#7C7D7F" stroke-width="1.6" stroke-linecap="round" stroke-linejoin="round"></path>
            </g>
        </g>
    </g>
</svg>