<?xml version="1.0" encoding="UTF-8"?>
<svg width="24px" height="21px" viewBox="0 0 24 21" version="1.1" xmlns="http://www.w3.org/2000/svg" xmlns:xlink="http://www.w3.org/1999/xlink">
    <!-- Generator: Sketch 53.2 (72643) - https://sketchapp.com -->
    <title>programDefault</title>
    <desc>Created with Sketch.</desc>
    <g id="Page-1" stroke="none" stroke-width="1" fill="none" fill-rule="evenodd">
        <g id="Icons" transform="translate(-37.000000, -894.000000)" fill-rule="nonzero">
            <g id="programDefault" transform="translate(37.000000, 894.000000)">
                <path d="M3,2 L8.58578644,2 L11.2928932,4.70710678 C11.4804296,4.89464316 11.7347835,5 12,5 L21,5 C21.5522847,5 22,5.44771525 22,6 L22,18 C22,18.5522847 21.5522847,19 21,19 L3,19 C2.44771525,19 2,18.5522847 2,18 L2,3 C2,2.44771525 2.44771525,2 3,2 Z" id="Combined-Shape" fill="#353D50"></path>
                <path d="M12.4142136,3 L21,3 C22.6568542,3 24,4.34314575 24,6 L24,18 C24,19.6568542 22.6568542,21 21,21 L3,21 C1.34314575,21 3.33066907e-16,19.6568542 0,18 L0,3 C3.33066907e-16,1.34314575 1.34314575,0 3,0 L9,0 C9.26521649,0 9.5195704,0.10535684 9.70710678,0.292893219 L12.4142136,3 Z M8.58578644,2 L3,2 C2.44771525,2 2,2.44771525 2,3 L2,18 C2,18.5522847 2.44771525,19 3,19 L21,19 C21.5522847,19 22,18.5522847 22,18 L22,6 C22,5.44771525 21.5522847,5 21,5 L12,5 C11.7347835,5 11.4804296,4.89464316 11.2928932,4.70710678 L8.58578644,2 Z" id="Shape" fill="#868BA7"></path>
            </g>
        </g>
    </g>
</svg>