<?xml version="1.0" encoding="UTF-8"?>
<svg width="261px" height="216px" viewBox="0 0 261 216" version="1.1" xmlns="http://www.w3.org/2000/svg" xmlns:xlink="http://www.w3.org/1999/xlink">
    <!-- Generator: Sketch 53 (72520) - https://sketchapp.com -->
    <title>22- working-against-time</title>
    <desc>Created with Sketch.</desc>
    <g id="Page-1" stroke="none" stroke-width="1" fill="none" fill-rule="evenodd">
        <g id="StyleGuide-Errors-503FullScreen" transform="translate(-589.000000, -192.000000)">
            <g id="22--working-against-time" transform="translate(590.000000, 193.000000)">
                <g id="Background" transform="translate(1.306533, 13.065327)">
                    <g id="New_Symbol_57-5">
                        <path d="M234.492578,112.774398 C234.488281,66.7190556 206.589412,25.2939085 164.018664,8.13244122 C121.447915,-9.02902608 72.760179,1.52190414 41.0310496,34.7846094 C9.30192012,68.0473146 0.907589552,117.33742 19.8265581,159.293838 L224.49505,159.293838 C231.098087,144.68196 234.507061,128.819682 234.492578,112.774398 Z" id="Path" fill="#E6E8EB" fill-rule="nonzero"></path>
                        <path d="M12.6373246,159.293838 L231.684283,159.293838" id="Path" stroke="#7C7D7F" stroke-width="1.6" stroke-linecap="round" stroke-linejoin="round"></path>
                        <path d="M0,159.293838 L7.02073586,159.293838" id="Path" stroke="#7C7D7F" stroke-width="1.6" stroke-linecap="round" stroke-linejoin="round"></path>
                        <path d="M237.300872,159.293838 L244.321608,159.293838" id="Path" stroke="#7C7D7F" stroke-width="1.6" stroke-linecap="round" stroke-linejoin="round"></path>
                    </g>
                </g>
                <g id="Scene">
                    <path d="M111.083374,104.431665 C95.565566,104.431665 82.9858972,117.042374 82.9858972,132.598473 L82.9858972,143.161026 C82.9774384,149.276473 86.9765611,154.671429 92.820014,156.427593 L129.346734,156.427593 C134.785168,156.366006 139.165834,151.93689 139.18085,146.484709 L139.18085,132.598473 C139.18085,117.042374 126.601182,104.431665 111.083374,104.431665 L111.083374,104.431665 Z" id="Path" fill="#FFFFFF" fill-rule="nonzero"></path>
                    <path d="M111.083374,104.431665 C95.565566,104.431665 82.9858972,117.042374 82.9858972,132.598473 L82.9858972,143.161026 C82.9774384,149.276473 86.9765611,154.671429 92.820014,156.427593 L129.346734,156.427593 C134.785168,156.366006 139.165834,151.93689 139.18085,146.484709 L139.18085,132.598473 C139.18085,117.042374 126.601182,104.431665 111.083374,104.431665 L111.083374,104.431665 Z" id="Path" stroke="#7C7D7F" stroke-width="1.6" stroke-linecap="round" stroke-linejoin="round"></path>
                    <path d="M0.0983411682,9.62218887 C0.0983411682,4.36422756 4.35026922,0.10180774 9.59528827,0.10180774 L90.3474361,0.10180774 C95.5924552,0.10180774 99.8443832,4.36422756 99.8443832,9.62218887 L99.8443832,61.0829472 C99.8444839,63.600208 98.8412338,66.0131563 97.0577456,67.7851765 C95.2742575,69.5571966 92.8584001,70.5413705 90.3474361,70.5188279 L68.9371589,70.5188279 L68.9371589,84.8839 C68.9382258,86.481624 67.970742,87.9197088 66.4926784,88.5174183 C65.0205656,89.1278293 63.3269254,88.7949236 62.1937645,87.672414 L45.2228886,70.5188279 L9.59528827,70.5188279 C7.08432426,70.5413705 4.66846687,69.5571966 2.88497874,67.7851765 C1.10149062,66.0131563 0.0982404775,63.600208 0.0983411682,61.0829472 L0.0983411682,9.62218887 Z" id="Path" stroke="#7C7D7F" stroke-width="1.6" fill="#FFFFFF" fill-rule="nonzero" stroke-linejoin="round"></path>
                    <path d="M111.083374,116.994061 L104.901929,138.062834 C104.375852,139.860894 104.776053,141.803489 105.969633,143.245526 L110.01567,147.97755 C110.277121,148.299501 110.669249,148.486372 111.083374,148.486372 C111.497499,148.486372 111.889626,148.299501 112.151078,147.97755 L116.197115,143.132859 C117.390695,141.690822 117.790896,139.748227 117.264819,137.950166 L111.083374,116.994061 Z" id="Path" stroke="#7C7D7F" stroke-width="1.6" fill="#FFFFFF" fill-rule="nonzero" stroke-linecap="round" stroke-linejoin="round"></path>
                    <path d="M123.727238,107.47368 L123.727238,121.190916 C123.758042,122.084095 123.364183,122.938929 122.66587,123.494513 C121.967557,124.050097 121.047666,124.240496 120.186956,124.007596 L111.083374,121.472584 L119.03496,105.727338 C120.652813,106.152465 122.224603,106.737444 123.727238,107.47368 Z" id="Path" stroke="#7C7D7F" stroke-width="1.6" fill="#FFFFFF" fill-rule="nonzero" stroke-linecap="round" stroke-linejoin="round"></path>
                    <path d="M111.083374,121.472584 L101.979791,123.923096 C101.119082,124.155995 100.19919,123.965597 99.5008776,123.410013 C98.8025648,122.854429 98.4087055,121.999595 98.4395094,121.106415 L98.4395094,107.47368 C99.9421449,106.737444 101.513935,106.152465 103.131788,105.727338 L111.083374,121.472584 Z" id="Path" stroke="#7C7D7F" stroke-width="1.6" fill="#FFFFFF" fill-rule="nonzero" stroke-linecap="round" stroke-linejoin="round"></path>
                    <path d="M130.751607,102.910657 C130.740455,101.255886 129.563487,99.8400383 127.94186,99.5306402 L127.94186,97.2772956 C127.94186,87.9436366 120.394058,80.3772112 111.083374,80.3772112 C101.772689,80.3772112 94.2248882,87.9436366 94.2248879,97.2772956 L94.2248879,99.5306402 C92.6032612,99.8400383 91.4262927,101.255886 91.4151402,102.910657 C91.4355685,104.708875 92.8045218,106.202651 94.5901551,106.375175 C96.2393068,114.18735 103.117841,119.776334 111.083374,119.776334 C119.048906,119.776334 125.927441,114.18735 127.576593,106.375175 C129.362226,106.202651 130.731179,104.708875 130.751607,102.910657 L130.751607,102.910657 Z" id="Path" stroke="#7C7D7F" stroke-width="1.6" fill="#FFFFFF" fill-rule="nonzero" stroke-linecap="round" stroke-linejoin="round"></path>
                    <ellipse id="Oval" fill="#FFFFFF" fill-rule="nonzero" cx="120.215054" cy="105.023168" rx="2.10731075" ry="2.1125106"></ellipse>
                    <ellipse id="Oval" fill="#FFFFFF" fill-rule="nonzero" cx="101.951694" cy="105.023168" rx="2.10731075" ry="2.1125106"></ellipse>
                    <path d="M129.346734,93.0522744 C129.346733,82.9408105 121.169949,74.7438497 111.083374,74.7438497 C100.996799,74.7438497 92.8200143,82.9408105 92.820014,93.0522744 L92.820014,98.685636 C97.2427671,97.5789949 100.88678,94.4478481 102.654131,90.2355936 C110.521424,95.5591203 120.917491,94.4606148 129.346734,93.0522744 Z" id="Path" fill="#FFFFFF" fill-rule="nonzero"></path>
                    <path d="M129.346734,93.0522744 C129.346733,82.9408105 121.169949,74.7438497 111.083374,74.7438497 C100.996799,74.7438497 92.8200143,82.9408105 92.820014,93.0522744 L92.820014,98.685636 C97.2427671,97.5789949 100.88678,94.4478481 102.654131,90.2355936 C110.521424,95.5591203 120.917491,94.4606148 129.346734,93.0522744 Z" id="Path" stroke="#7C7D7F" stroke-width="1.6" stroke-linecap="round" stroke-linejoin="round"></path>
                    <path d="M115.326093,111.3607 C112.770338,109.666968 109.452605,109.666968 106.89685,111.3607" id="Path" stroke="#7C7D7F" stroke-width="1.6" stroke-linecap="round" stroke-linejoin="round"></path>
                    <path d="M116.702869,97.2772956 C115.539034,97.2772956 114.595558,98.2230988 114.595558,99.3898062 C114.595558,100.556514 115.539034,101.502317 116.702869,101.502317 C117.866705,101.502317 118.81018,100.556514 118.81018,99.3898062 C118.795047,98.2294405 117.860379,97.2924657 116.702869,97.2772956 L116.702869,97.2772956 Z" id="Path" fill="#7C7D7F" fill-rule="nonzero"></path>
                    <path d="M105.463879,97.2772956 C104.300043,97.2772956 103.356568,98.2230988 103.356568,99.3898062 C103.356568,100.556514 104.300043,101.502317 105.463879,101.502317 C106.627714,101.502317 107.571189,100.556514 107.571189,99.3898062 C107.556057,98.2294405 106.621388,97.2924657 105.463879,97.2772956 L105.463879,97.2772956 Z" id="Path" fill="#7C7D7F" fill-rule="nonzero"></path>
                    <path d="M120.580321,124.373765 C119.836754,122.485546 118.025372,121.237845 116.000432,121.219082 C115.394209,121.216756 114.793213,121.331514 114.230291,121.557084 C111.703765,122.540141 110.447088,125.38724 111.420544,127.922783 L113.584049,133.556144 L122.800022,130.007127 L120.580321,124.373765 Z" id="Path" stroke="#7C7D7F" stroke-width="1.6" fill="#FFFFFF" fill-rule="nonzero" stroke-linecap="round" stroke-linejoin="round"></path>
                    <path d="M111.083374,151.498401 C111.068024,148.782483 108.875548,146.584598 106.166315,146.56921 L101.249257,146.56921 L101.249257,156.427593 L106.166315,156.427593 C108.875548,156.412205 111.068024,154.214319 111.083374,151.498401 L111.083374,151.498401 Z" id="Path" stroke="#7C7D7F" stroke-width="1.6" fill="#FFFFFF" fill-rule="nonzero" stroke-linecap="round" stroke-linejoin="round"></path>
                    <ellipse id="Oval" stroke="#7C7D7F" stroke-width="1.6" fill="#FFF3E1" fill-rule="nonzero" stroke-linejoin="round" cx="50.6737991" cy="35.3103178" rx="23.8828551" ry="23.9417869"></ellipse>
                    <ellipse id="Oval" fill="#FFF3E1" fill-rule="nonzero" cx="50.6737991" cy="35.3103178" rx="18.2633598" ry="18.3084252"></ellipse>
                    <ellipse id="Oval" stroke="#7C7D7F" stroke-width="1.6" stroke-linejoin="round" cx="50.6737991" cy="35.3103178" rx="18.2633598" ry="18.3084252"></ellipse>
                    <polyline id="Path" stroke="#7C7D7F" stroke-width="1.6" stroke-linecap="round" stroke-linejoin="round" points="50.6737991 22.6352542 50.6737991 35.3103178 42.2445561 35.3103178"></polyline>
                    <path d="M63.5986384,22.3535861 L60.6203058,25.3392678" id="Path" stroke="#7C7D7F" stroke-width="1.6" stroke-linecap="round" stroke-linejoin="round"></path>
                    <path d="M68.9371589,35.3103178 L64.7225374,35.3103178" id="Path" stroke="#7C7D7F" stroke-width="1.6" stroke-linecap="round" stroke-linejoin="round"></path>
                    <path d="M63.5986384,48.2670495 L60.6203058,45.2813679" id="Path" stroke="#7C7D7F" stroke-width="1.6" stroke-linecap="round" stroke-linejoin="round"></path>
                    <path d="M50.6737991,53.6187431 L50.6737991,49.3937219" id="Path" stroke="#7C7D7F" stroke-width="1.6" stroke-linecap="round" stroke-linejoin="round"></path>
                    <path d="M37.7489599,48.2670495 L40.7272924,45.2813679" id="Path" stroke="#7C7D7F" stroke-width="1.6" stroke-linecap="round" stroke-linejoin="round"></path>
                    <path d="M32.4104393,35.3103178 L36.6250608,35.3103178" id="Path" stroke="#7C7D7F" stroke-width="1.6" stroke-linecap="round" stroke-linejoin="round"></path>
                    <path d="M37.7489599,22.3535861 L40.7272924,25.3392678" id="Path" stroke="#7C7D7F" stroke-width="1.6" stroke-linecap="round" stroke-linejoin="round"></path>
                    <path d="M101.249257,156.427593 L101.249257,146.56921 L96.3321986,146.56921 C94.3924726,146.56921 92.820014,144.992871 92.820014,143.048359 L92.820014,128.260784" id="Path" stroke="#7C7D7F" stroke-width="1.6" stroke-linecap="round" stroke-linejoin="round"></path>
                    <path d="M129.346734,146.512876 L122.800022,129.97896 L113.584049,133.527978 L120.018371,150.090061 C121.514355,153.900945 125.177204,156.412114 129.262441,156.427593" id="Path" stroke="#7C7D7F" stroke-width="1.6" fill="#FFFFFF" fill-rule="nonzero" stroke-linecap="round" stroke-linejoin="round"></path>
                    <path d="M129.346734,128.260784 L129.346734,146.512876" id="Path" stroke="#7C7D7F" stroke-width="1.6" fill="#FFFFFF" fill-rule="nonzero" stroke-linecap="round" stroke-linejoin="round"></path>
                    <g id="Group" transform="translate(7.122710, 43.760360)">
                        <ellipse id="Oval" fill="#C1C7CD" fill-rule="nonzero" cx="78.6729346" cy="166.184168" rx="78.6729346" ry="4.22502121"></ellipse>
                        <path d="M21.0731075,112.667232 L49.1705841,112.667232" id="Path" stroke="#7C7D7F" stroke-width="1.6" stroke-linecap="round" stroke-linejoin="round"></path>
                        <rect id="Rectangle" fill="#FFFFFF" fill-rule="nonzero" x="2.80974766" y="59.1502969" width="64.6241963" height="45.0668929" rx="2"></rect>
                        <rect id="Rectangle" stroke="#7C7D7F" stroke-width="1.6" stroke-linecap="round" stroke-linejoin="round" x="2.80974766" y="59.1502969" width="64.6241963" height="45.0668929" rx="2"></rect>
                        <path d="M11.2389907,64.7836586 L59.0047009,64.7836586" id="Path" stroke="#7C7D7F" stroke-width="1.6" stroke-linecap="round" stroke-linejoin="round"></path>
                        <path d="M44.9559626,112.667232 L25.287729,112.667232 L27.6760145,84.0215885 C27.9247246,81.0987559 30.3693024,78.8564479 33.2955098,78.8670626 L37.0043767,78.8670626 C39.9305842,78.8564479 42.3751619,81.0987559 42.623872,84.0215885 L44.9559626,112.667232 Z" id="Path" stroke="#7C7D7F" stroke-width="1.6" fill="#FFFFFF" fill-rule="nonzero" stroke-linecap="round" stroke-linejoin="round"></path>
                        <path d="M11.2389907,92.9504666 L11.2389907,95.7671474" id="Path" stroke="#7C7D7F" stroke-width="1.6" stroke-linecap="round" stroke-linejoin="round"></path>
                        <path d="M16.858486,92.9504666 L16.858486,95.7671474" id="Path" stroke="#7C7D7F" stroke-width="1.6" stroke-linecap="round" stroke-linejoin="round"></path>
                        <path d="M22.4779813,92.9504666 L22.4779813,95.7671474" id="Path" stroke="#7C7D7F" stroke-width="1.6" stroke-linecap="round" stroke-linejoin="round"></path>
                        <path d="M11.2389907,118.300594 L150.3215,118.300594 L150.3215,161.959146 C150.3215,163.514756 149.063533,164.775827 147.511752,164.775827 L14.0487383,164.775827 C12.4969575,164.775827 11.2389907,163.514756 11.2389907,161.959146 L11.2389907,118.300594 Z" id="Path" fill="#FFFFFF" fill-rule="nonzero"></path>
                        <path d="M11.2389907,118.300594 L150.3215,118.300594 L150.3215,161.959146 C150.3215,163.514756 149.063533,164.775827 147.511752,164.775827 L14.0487383,164.775827 C12.4969575,164.775827 11.2389907,163.514756 11.2389907,161.959146 L11.2389907,118.300594 Z" id="Path" stroke="#7C7D7F" stroke-width="1.6" stroke-linecap="round" stroke-linejoin="round"></path>
                        <path d="M153.131248,115.483913 C153.131248,113.928303 151.873281,112.667232 150.3215,112.667232 L11.2389907,112.667232 C9.68720987,112.667232 8.42924299,113.928303 8.42924299,115.483913 L8.42924299,115.483913 C8.42924299,117.039523 9.68720987,118.300594 11.2389907,118.300594 L150.3215,118.300594 C151.873281,118.300594 153.131248,117.039523 153.131248,115.483913 Z" id="Path" stroke="#7C7D7F" stroke-width="1.6" fill="#DBE9F9" fill-rule="nonzero" stroke-linecap="round" stroke-linejoin="round"></path>
                        <rect id="Rectangle" fill="#FFFFFF" fill-rule="nonzero" x="21.0731075" y="118.300594" width="119.414276" height="46.4752333"></rect>
                        <rect id="Rectangle" stroke="#7C7D7F" stroke-width="1.6" stroke-linecap="round" stroke-linejoin="round" x="21.0731075" y="118.300594" width="119.414276" height="46.4752333"></rect>
                        <rect id="Rectangle" fill="#FFFFFF" fill-rule="nonzero" x="28.0974766" y="125.342296" width="105.365537" height="32.3918293" rx="2"></rect>
                        <rect id="Rectangle" stroke="#7C7D7F" stroke-width="1.6" stroke-linecap="round" stroke-linejoin="round" x="28.0974766" y="125.342296" width="105.365537" height="32.3918293" rx="2"></rect>
                        <rect id="Rectangle" stroke="#7C7D7F" stroke-width="1.6" fill="#FFFFFF" fill-rule="nonzero" stroke-linecap="round" stroke-linejoin="round" x="144.702005" y="11.2667232" width="95.5314205" height="63.3753181"></rect>
                        <path d="M248.662668,0 L137.677635,0 C136.125855,0 134.867888,1.26107095 134.867888,2.81668081 L134.867888,2.81668081 C134.867888,4.37229066 136.125855,5.63336161 137.677635,5.63336161 L248.662668,5.63336161 C250.214449,5.63336161 251.472416,4.37229066 251.472416,2.81668081 L251.472416,2.81668081 C251.472416,1.26107095 250.214449,0 248.662668,0 Z" id="Path" stroke="#7C7D7F" stroke-width="1.6" fill="#FFFFFF" fill-rule="nonzero" stroke-linecap="round" stroke-linejoin="round"></path>
                        <rect id="Rectangle" stroke="#7C7D7F" stroke-width="1.6" fill="#FFFFFF" fill-rule="nonzero" stroke-linecap="round" stroke-linejoin="round" x="150.3215" y="16.9000848" width="89.9119252" height="52.1085949"></rect>
                        <path d="M140.487315,0 L140.487383,80.1627358 C140.479949,81.2335163 141.078824,82.2159115 142.032744,82.6977485 C144.781388,84.1392948 148.131601,83.7362773 150.461987,81.6837434 C152.792374,83.7362773 156.142587,84.1392948 158.89123,82.6977485 C159.84515,82.2159115 160.444025,81.2335163 160.436592,80.1627358 L160.43666,0 L140.487315,0 Z" id="Path" stroke="#7C7D7F" stroke-width="1.6" fill="#DBE9F9" fill-rule="nonzero" stroke-linecap="round" stroke-linejoin="round"></path>
                        <path d="M226.184618,0 L226.184687,80.1627358 C226.177253,81.2335163 226.776128,82.2159115 227.730048,82.6977485 C230.442649,84.0748631 233.716173,83.6743965 236.018804,81.6837434 C238.85304,84.1020009 243.018685,84.1020009 245.852921,81.6837434 L245.852921,0 L226.184618,0 Z" id="Path" stroke="#7C7D7F" stroke-width="1.6" fill="#DBE9F9" fill-rule="nonzero" stroke-linecap="round" stroke-linejoin="round"></path>
                        <path d="M150.3215,81.6837434 L150.3215,12.6750636" id="Path" stroke="#7C7D7F" stroke-width="1.6" stroke-linecap="round" stroke-linejoin="round"></path>
                        <path d="M236.018804,81.6837434 L236.018804,12.6750636" id="Path" stroke="#7C7D7F" stroke-width="1.6" stroke-linecap="round" stroke-linejoin="round"></path>
                        <path d="M191.765278,45.0668929 C187.201406,45.0875683 183.028819,42.4866053 181.028597,38.3742311 C179.028375,34.261857 179.55385,29.364508 182.380721,25.7726294 C176.746783,27.1307587 172.760184,32.1616243 172.714954,37.970286 C172.669725,43.7789477 176.577497,48.8715871 182.189599,50.3177171 C187.801701,51.7638471 193.674864,49.1915652 196.429459,44.0810546 C194.955924,44.7183597 193.370049,45.0535561 191.765278,45.0668929 Z" id="Path" stroke="#7C7D7F" stroke-width="1.6" fill="#FFFFFF" fill-rule="nonzero" stroke-linecap="round" stroke-linejoin="round"></path>
                        <ellipse id="Oval" stroke="#7C7D7F" stroke-width="1.6" fill="#FFFFFF" fill-rule="nonzero" stroke-linecap="round" stroke-linejoin="round" cx="204.77441" cy="29.2371468" rx="7.36153888" ry="7.37970371"></ellipse>
                        <ellipse id="Oval" stroke="#7C7D7F" stroke-width="1.6" fill="#FFFFFF" fill-rule="nonzero" stroke-linecap="round" stroke-linejoin="round" cx="211.798779" cy="52.4465966" rx="7.36153888" ry="7.37970371"></ellipse>
                    </g>
                </g>
            </g>
        </g>
    </g>
</svg>