<?xml version="1.0" encoding="UTF-8"?>
<svg width="64px" height="64px" viewBox="0 0 64 64" version="1.1" xmlns="http://www.w3.org/2000/svg" xmlns:xlink="http://www.w3.org/1999/xlink">
    <!-- Generator: Sketch 52.5 (67469) - http://www.bohemiancoding.com/sketch -->
    <title>40-Easy-TO-Use-2</title>
    <desc>Created with Sketch.</desc>
    <g id="Invision-Sequence" stroke="none" stroke-width="1" fill="none" fill-rule="evenodd">
        <g id="0.3---Profile-field-selection-Copy" transform="translate(-476.000000, -227.000000)">
            <g id="modal" transform="translate(420.000000, 28.000000)">
                <g id="Group-4" transform="translate(32.000000, 75.000000)">
                    <g id="course-copy" transform="translate(0.000000, 108.000000)">
                        <g id="40-Easy-TO-Use-2" transform="translate(24.000000, 16.000000)">
                            <circle id="Oval" fill="#FFFFFF" fill-rule="nonzero" cx="32" cy="32" r="32"></circle>
                            <path d="M40.1851852,29.5925926 C40.1851852,35.4423519 35.4423519,40.1851852 29.5925926,40.1851852 C23.7428333,40.1851852 19,35.4423519 19,29.5925926 C19,23.7428333 23.7428333,19 29.5925926,19 C35.4423519,19 40.1851852,23.7428333 40.1851852,29.5925926 Z" id="Stroke" fill="#ECF3FC"></path>
                            <path d="M24.9091797,34.1455078 C24.9091797,33.8128239 24.9957674,33.5576181 25.1689453,33.3798828 C25.3421233,33.2021475 25.5927718,33.1132812 25.9208984,33.1132812 C26.2535824,33.1132812 26.5065096,33.2055655 26.6796875,33.3901367 C26.8528654,33.574708 26.9394531,33.8264958 26.9394531,34.1455078 C26.9394531,34.4690771 26.8517261,34.7254222 26.6762695,34.9145508 C26.5008129,35.1036793 26.2490251,35.1982422 25.9208984,35.1982422 C25.5927718,35.1982422 25.3421233,35.1048186 25.1689453,34.9179687 C24.9957674,34.7311189 24.9091797,34.4736345 24.9091797,34.1455078 Z M37.9885733,37.0693344 L45.4596194,44.5403806 C45.7134602,44.7942214 45.7134602,45.2057786 45.4596194,45.4596194 C45.2057786,45.7134602 44.7942214,45.7134602 44.5403806,45.4596194 L37.0693344,37.9885733 C35.08246,39.7591957 32.4630938,40.8351852 29.5925926,40.8351852 C23.3838482,40.8351852 18.35,35.8013369 18.35,29.5925926 C18.35,23.3838482 23.3838482,18.35 29.5925926,18.35 C35.8013369,18.35 40.8351852,23.3838482 40.8351852,29.5925926 C40.8351852,32.4630938 39.7591957,35.08246 37.9885733,37.0693344 Z M32.4423828,24.3632812 L32.1621094,26.9746094 L34.7939453,26.2363281 L34.9853516,27.7197266 L32.5244141,27.9179687 L34.1376953,30.0439453 L32.7773437,30.7753906 L31.6425781,28.4648437 L30.6240234,30.7753906 L29.2226562,30.0439453 L30.8017578,27.9179687 L28.3544922,27.7197266 L28.59375,26.2363281 L31.1640625,26.9746094 L30.8837891,24.3632812 L32.4423828,24.3632812 Z M39.5351852,29.5925926 C39.5351852,24.1018184 35.0833668,19.65 29.5925926,19.65 C24.1018184,19.65 19.65,24.1018184 19.65,29.5925926 C19.65,35.0833668 24.1018184,39.5351852 29.5925926,39.5351852 C35.0833668,39.5351852 39.5351852,35.0833668 39.5351852,29.5925926 Z" id=".*" fill="#4D7CC7"></path>
                            <ellipse id="Oval" fill="#E4EFFB" fill-rule="nonzero" cx="31.6444444" cy="55.132875" rx="15.4469136" ry="1.362375"></ellipse>
                        </g>
                    </g>
                </g>
            </g>
        </g>
    </g>
</svg>