<svg xmlns="http://www.w3.org/2000/svg" width="17" height="15" viewBox="0 0 17 15">
    <path fill="#000" fill-rule="evenodd" d="M1.378 13.859c-1.6-1.6-.87-3.954.615-5.439l6-5.995c2.345-2.343 5.181-3.265 7.525-.923 2.34 2.338 1.608 5.413-.73 7.751l-4.501 4.497a.5.5 0 0 1-.707-.707l4.5-4.497c1.95-1.949 2.68-4.388.731-6.337-1.952-1.952-4.158-1.03-6.11.923l-6 5.995c-1.365 1.364-1.595 2.97-.54 4.025 1.057 1.056 2.74.326 3.797-.731l5.482-5.513c.587-.587.764-1.358.5-1.621-.465-.416-1.054-.066-1.62.5l-4.501 4.497a.5.5 0 0 1-.707-.707l4.5-4.497c.945-.944 2.093-1.445 3.035-.5.748.748.477 2.059-.5 3.034l-5.481 5.513c-1.948 1.948-3.843 2.176-5.288.732z"/>
</svg>
