<?xml version="1.0" encoding="UTF-8"?>
<svg width="15px" height="16px" viewBox="0 0 15 16" version="1.1" xmlns="http://www.w3.org/2000/svg" xmlns:xlink="http://www.w3.org/1999/xlink">
    <!-- Generator: Sketch 47.1 (45422) - http://www.bohemiancoding.com/sketch -->
    <title>Delete</title>
    <desc>Created with Sketch.</desc>
    <defs></defs>
    <g id="Page-1" stroke="none" stroke-width="1" fill="none" fill-rule="evenodd">
        <path d="M2,3 L13,3 L13,15 C13,15.5522847 12.5522847,16 12,16 L3,16 C2.44771525,16 2,15.5522847 2,15 L2,3 Z M3,4 L3,15 L12,15 L12,4 L3,4 Z M9,3 L9,1 L6,1 L6,3 L9,3 Z M5,1 C5,0.44771525 5.44771525,0 6,0 L9,0 C9.55228475,0 10,0.44771525 10,1 L10,4 L5,4 L5,1 Z M5.5,6 C5.77614237,6 6,6.22385763 6,6.5 L6,12.5 C6,12.7761424 5.77614237,13 5.5,13 C5.22385763,13 5,12.7761424 5,12.5 L5,6.5 C5,6.22385763 5.22385763,6 5.5,6 Z M7.5,6 C7.77614237,6 8,6.22385763 8,6.5 L8,12.5 C8,12.7761424 7.77614237,13 7.5,13 C7.22385763,13 7,12.7761424 7,12.5 L7,6.5 C7,6.22385763 7.22385763,6 7.5,6 Z M9.5,6 C9.77614237,6 10,6.22385763 10,6.5 L10,12.5 C10,12.7761424 9.77614237,13 9.5,13 C9.22385763,13 9,12.7761424 9,12.5 L9,6.5 C9,6.22385763 9.22385763,6 9.5,6 Z M0.5,3 L14.5,3 C14.7761424,3 15,3.22385763 15,3.5 C15,3.77614237 14.7761424,4 14.5,4 L0.5,4 C0.223857625,4 3.38176876e-17,3.77614237 0,3.5 C-3.38176876e-17,3.22385763 0.223857625,3 0.5,3 L0.5,3 Z" id="Delete" fill="#999999" fill-rule="nonzero"></path>
    </g>
</svg>