<svg xmlns="http://www.w3.org/2000/svg" width="190" height="190" viewBox="0 0 190 190">
    <g fill="none" fill-rule="evenodd">
        <circle cx="95" cy="95" r="94.5" stroke="#DDD"/>
        <path fill="#CCC" d="M20 109h150v6H20z"/>
        <path fill="#AAA" d="M105.001 123.302l-3.367-4.992 2.542-1.715c.062-.041.107-.139.122-.216-.01-.082-.047-.169-.119-.21l-8.583-5.127c-.097-.045-.205-.04-.266.002-.092.062-.138.16-.127.241l1.283 9.83c.01.081.072.173.144.213a.25.25 0 0 0 .24-.006l2.804-1.69 3.367 4.992a.282.282 0 0 0 .165.112c.051.01.133-.001.194-.043l1.532-1.032a.253.253 0 0 0 .07-.36zM20 109h50v6H20zM51 75h89a4 4 0 0 1 4 4v17a4 4 0 0 1-4 4h-39l-5 6-5-6H51a4 4 0 0 1-4-4V79a4 4 0 0 1 4-4z"/>
        <text fill="#FFF" font-family="OpenSans, Open Sans" font-size="12">
            <tspan x="55.053" y="92">Add Comment</tspan>
        </text>
        <text fill="#CCC" font-family="OpenSans, Open Sans" font-size="11">
            <tspan x="44.102" y="128">2:10</tspan>
        </text>
        <path fill="#CCC" d="M33 122.125h1.5v3.75H33a1 1 0 0 1-1-1v-1.75a1 1 0 0 1 1-1zm1.5 0L38.25 119v10l-3.75-3.125v-3.75zM26.47 124.841l-4.93 3.169a1 1 0 0 1-1.54-.842v-6.336a1 1 0 0 1 1.54-.842l4.93 3.169a1 1 0 0 1 0 1.682z"/>
    </g>
</svg>
