<svg xmlns="http://www.w3.org/2000/svg" xmlns:xlink="http://www.w3.org/1999/xlink" width="110" height="96" viewBox="0 0 110 96">
    <defs>
        <path id="b" d="M10.067 6.05H10c-5.523 0-10 4.477-10 10v60c0 5.522 4.477 10 10 10h80c5.523 0 10-4.478 10-10v-60c0-5.523-4.477-10-10-10H23.933L18.407.578a2 2 0 0 0-2.814 0l-5.526 5.47z"/>
        <filter id="a" width="115%" height="117.4%" x="-7.5%" y="-8.7%" filterUnits="objectBoundingBox">
            <feOffset in="SourceAlpha" result="shadowOffsetOuter1"/>
            <feGaussianBlur in="shadowOffsetOuter1" result="shadowBlurOuter1" stdDeviation="2.5"/>
            <feColorMatrix in="shadowBlurOuter1" values="0 0 0 0 0.380392157 0 0 0 0 0.470588235 0 0 0 0 0.580392157 0 0 0 0.124150815 0"/>
        </filter>
    </defs>
    <g fill="none" fill-rule="evenodd">
        <g transform="matrix(1 0 0 -1 5 91.05)">
            <use fill="#000" filter="url(#a)" xlink:href="#b"/>
            <use fill="#FFF" xlink:href="#b"/>
        </g>
        <path fill="#D8D8D8" d="M26 37h40a1 1 0 0 1 0 2H26a1 1 0 0 1 0-2zm0 8h48a1 1 0 0 1 0 2H26a1 1 0 0 1 0-2zm0 8h28a1 1 0 0 1 0 2H26a1 1 0 0 1 0-2z"/>
    </g>
</svg>
