<svg xmlns="http://www.w3.org/2000/svg" width="22" height="16" viewBox="0 0 22 16">
    <path fill="#FFF" fill-rule="evenodd" d="M1 0h20a1 1 0 0 1 1 1v14a1 1 0 0 1-1 1H1a1 1 0 0 1-1-1V1a1 1 0 0 1 1-1zm9.23 12V4.147H8.94V7.36H5.32V4.147H4.037V12H5.32V8.46h3.62V12h1.29zm8.454-4.001c0-1.221-.348-2.169-1.042-2.842-.695-.673-1.667-1.01-2.917-1.01h-2.428V12h2.197c1.354 0 2.39-.343 3.11-1.029.72-.685 1.08-1.676 1.08-2.972zm-1.354.043c0 1.919-.945 2.878-2.836 2.878h-.913V5.222h1.112c1.758 0 2.637.94 2.637 2.82z"/>
</svg>
