<svg xmlns="http://www.w3.org/2000/svg" width="16" height="17" viewBox="0 0 16 17">
    <path fill="#FFF" fill-rule="evenodd" d="M1.531 12c-.812 0-1.5-.643-1.5-1.47L0 8.016c0-.888.531-1.532 1.313-1.532h2.625l5.53-5.392a.29.29 0 0 1 .345-.061c.124.03.187.153.187.276v3.247L2.375 12h-.844zm7.954 4.911L5 12.855 10 8v8.704c0 .118-.06.207-.182.266-.03.03-.09.03-.121.03a.278.278 0 0 1-.212-.089zM15.883.117c.197.198.132.56-.098.792l-5.35 5.343-5.877 5.904-3.61 3.628c-.263.23-.624.297-.821.099-.197-.198-.165-.56.098-.825L15.063.216c.262-.23.623-.297.82-.099z"/>
</svg>
