<svg xmlns="http://www.w3.org/2000/svg" width="18" height="17" viewBox="0 0 18 17">
    <g fill="none" fill-rule="evenodd">
        <path stroke="#000" d="M10.96 2.109A7.455 7.455 0 0 0 8 1.5C3.865 1.5.5 4.865.5 9s3.365 7.5 7.5 7.5 7.5-3.365 7.5-7.5a7.48 7.48 0 0 0-.279-2.03l-4.26-4.861z"/>
        <path stroke="#000" stroke-linecap="round" d="M4.8 10.6C5.274 12.035 6.56 13 8 13c1.44 0 2.726-.964 3.2-2.4"/>
        <path fill="#000" d="M5.8 7.8a1 1 0 1 1 0-2 1 1 0 0 1 0 2zm4.8 0a1 1 0 1 1 0-2 1 1 0 0 1 0 2z"/>
        <path fill="#F48414" d="M15 3.5h2.009a.5.5 0 0 0 0-1H15V.491a.5.5 0 0 0-1 0V2.5h-2.009a.5.5 0 0 0 0 1H14v2.009a.5.5 0 0 0 1 0V3.5z"/>
    </g>
</svg>
