<?xml version="1.0" encoding="UTF-8"?>
<svg width="20px" height="18px" viewBox="0 0 20 18" version="1.1" xmlns="http://www.w3.org/2000/svg" xmlns:xlink="http://www.w3.org/1999/xlink">
    <!-- Generator: sketchtool 50.2 (55047) - http://www.bohemiancoding.com/sketch -->
    <title>52DC384B-41B9-4246-AB87-6A4562851C60@2x</title>
    <desc>Created with sketchtool.</desc>
    <defs></defs>
    <g id="Reviewer-Copy" stroke="none" stroke-width="1" fill="none" fill-rule="evenodd">
        <g id="01_Landing-page_LP_cc" transform="translate(-640.000000, -643.000000)" fill="#FFFFFF" fill-rule="nonzero">
            <path d="M657.777778,643 L642.222222,643 C641,643 640,644.009615 640,645.24359 L640,658.705128 C640,659.939103 641,660.948718 642.222222,660.948718 L657.777778,660.948718 C659,660.948718 660,659.939103 660,658.705128 L660,645.24359 C660,644.009615 659,643 657.777778,643 Z M648.888889,650.852564 L647.222222,650.852564 L647.222222,650.291667 L645,650.291667 L645,653.657051 L647.222222,653.657051 L647.222222,653.096154 L648.888889,653.096154 L648.888889,654.217949 C648.888889,654.891026 648.444444,655.339744 647.777778,655.339744 L644.444444,655.339744 C643.777778,655.339744 643.333333,654.891026 643.333333,654.217949 L643.333333,649.730769 C643.333333,649.057692 643.777778,648.608974 644.444444,648.608974 L647.777778,648.608974 C648.444444,648.608974 648.888889,649.057692 648.888889,649.730769 L648.888889,650.852564 Z M656.666667,650.852564 L655,650.852564 L655,650.291667 L652.777778,650.291667 L652.777778,653.657051 L655,653.657051 L655,653.096154 L656.666667,653.096154 L656.666667,654.217949 C656.666667,654.891026 656.222222,655.339744 655.555556,655.339744 L652.222222,655.339744 C651.555556,655.339744 651.111111,654.891026 651.111111,654.217949 L651.111111,649.730769 C651.111111,649.057692 651.555556,648.608974 652.222222,648.608974 L655.555556,648.608974 C656.222222,648.608974 656.666667,649.057692 656.666667,649.730769 L656.666667,650.852564 Z" id="Subtitlte"></path>
        </g>
    </g>
</svg>