<?xml version="1.0" encoding="UTF-8"?>
<svg width="16px" height="16px" viewBox="0 0 16 16" version="1.1" xmlns="http://www.w3.org/2000/svg" xmlns:xlink="http://www.w3.org/1999/xlink">
    <!-- Generator: Sketch 50.2 (55047) - http://www.bohemiancoding.com/sketch -->
    <title>search</title>
    <desc>Created with Sketch.</desc>
    <defs></defs>
    <g id="Page-1" stroke="none" stroke-width="1" fill="none" fill-rule="evenodd">
        <g id="Desktop-HD" transform="translate(-385.000000, -84.000000)" fill="#000000" fill-rule="nonzero">
            <path d="M397.206672,94.9724493 L400.744384,98.5101614 C401.085205,98.8509826 401.085205,99.4035629 400.744384,99.7443841 C400.403563,100.085205 399.850983,100.085205 399.510161,99.7443841 L395.972449,96.206672 C394.821673,97.0954697 393.378648,97.6242424 391.812121,97.6242424 C388.049891,97.6242424 385,94.5743519 385,90.8121212 C385,87.0498906 388.049891,84 391.812121,84 C395.574352,84 398.624242,87.0498906 398.624242,90.8121212 C398.624242,92.378648 398.09547,93.8216733 397.206672,94.9724493 Z M391.812121,95.8787879 C394.610364,95.8787879 396.878788,93.6103639 396.878788,90.8121212 C396.878788,88.0138785 394.610364,85.7454545 391.812121,85.7454545 C389.013878,85.7454545 386.745455,88.0138785 386.745455,90.8121212 C386.745455,93.6103639 389.013878,95.8787879 391.812121,95.8787879 Z" id="search"></path>
        </g>
    </g>
</svg>