<?xml version="1.0" encoding="UTF-8"?>
<svg width="16px" height="12px" viewBox="0 0 16 12" version="1.1" xmlns="http://www.w3.org/2000/svg" xmlns:xlink="http://www.w3.org/1999/xlink">
    <!-- Generator: Sketch 53.2 (72643) - https://sketchapp.com -->
    <title>sort</title>
    <desc>Created with Sketch.</desc>
    <g id="Page-1" stroke="none" stroke-width="1" fill="none" fill-rule="evenodd">
        <g id="Icons" transform="translate(-932.000000, -139.000000)" fill="#000000" fill-rule="nonzero">
            <path d="M944.902411,148.543568 L946.838287,146.274852 C947.075627,145.996706 947.492497,145.964494 947.769393,146.202905 C948.046289,146.441316 948.078356,146.860068 947.841016,147.138213 L944.746233,150.76509 C944.625106,150.908781 944.444195,151 944.242075,151 C944.039955,151 943.859044,150.908781 943.737917,150.76509 L940.643134,147.138213 C940.405794,146.860068 940.437861,146.441316 940.714757,146.202905 C940.991653,145.964494 941.408523,145.996706 941.645863,146.274852 L943.581739,148.543568 L943.581739,142.557789 C943.581739,142.191449 943.877381,141.894472 944.242075,141.894472 C944.606769,141.894472 944.902411,142.191449 944.902411,142.557789 L944.902411,148.543568 Z M932.660336,140.326633 C932.295643,140.326633 932,140.029656 932,139.663317 C932,139.296977 932.295643,139 932.660336,139 L944.186204,139 C944.550897,139 944.84654,139.296977 944.84654,139.663317 C944.84654,140.029656 944.550897,140.326633 944.186204,140.326633 L932.660336,140.326633 Z M932.660336,144.010507 C932.295643,144.010507 932,143.71353 932,143.34719 C932,142.980851 932.295643,142.683874 932.660336,142.683874 L941.042785,142.683874 C941.407479,142.683874 941.703121,142.980851 941.703121,143.34719 C941.703121,143.71353 941.407479,144.010507 941.042785,144.010507 L932.660336,144.010507 Z M932.660336,147.694381 C932.295643,147.694381 932,147.397404 932,147.031064 C932,146.664725 932.295643,146.367748 932.660336,146.367748 L936.851561,146.367748 C937.216254,146.367748 937.511897,146.664725 937.511897,147.031064 C937.511897,147.397404 937.216254,147.694381 936.851561,147.694381 L932.660336,147.694381 Z" id="sort"></path>
        </g>
    </g>
</svg>